<?xml version="1.0" standalone="no"?>
<!DOCTYPE svg PUBLIC "-//W3C//DTD SVG 1.1//EN" "http://www.w3.org/Graphics/SVG/1.1/DTD/svg11.dtd" >
<!--
2016-3-4: Created with FontForge (http://fontforge.org)
-->
<svg xmlns="http://www.w3.org/2000/svg" xmlns:xlink="http://www.w3.org/1999/xlink" version="1.1">
<metadata>
Created by FontForge 20150928 at Fri Mar  4 15:21:25 2016
 By camilo
Copyright (c) 2016, camilo
</metadata>
<defs>
<font id="CpsIcons" horiz-adv-x="448" >
  <font-face 
    font-family="CpsIcons"
    font-weight="400"
    font-stretch="normal"
    units-per-em="512"
    panose-1="2 0 5 3 0 0 0 0 0 0"
    ascent="448"
    descent="-64"
    bbox="-0.54049 -64 512.487 448"
    underline-thickness="25.6"
    underline-position="-51.2"
    unicode-range="U+F100-F50D"
  />
    <missing-glyph />
    <glyph glyph-name="ion-arrow-left-b" unicode="&#xf107;" horiz-adv-x="192" 
d="M167 349c2 2 6 3 9 3c9 0 16 -8 16 -17v0v-286v0c0 -9 -7 -17 -16 -17c-3 0 -7 1 -9 3l-2 2l-156 136c-5 5 -9 11 -9 19s4 14 9 19l156 136z" />
    <glyph glyph-name="ion-android-lock" unicode="&#xf392;" horiz-adv-x="320" 
d="M280 262c22 0 40 -18 40 -40v-200c0 -22 -18 -40 -40 -40h-240c-22 0 -40 18 -40 40v200c0 22 18 40 40 40h20v40c0 55 45 100 100 100s100 -45 100 -100v-40h20zM160 80c22 0 40 18 40 40s-18 40 -40 40s-40 -18 -40 -40s18 -40 40 -40zM222 262v40c0 34 -28 62 -62 62
s-62 -28 -62 -62v-40h124z" />
    <glyph glyph-name="ion-ios-medical" unicode="&#xf45c;" horiz-adv-x="364" 
d="M364 260l-118 -68l118 -68l-32 -56l-118 69v-137h-64v137l-118 -69l-32 56l118 68l-118 68l32 56l118 -69v137h64v-137l118 69z" />
    <glyph glyph-name="ion-ios-pricetags-outline" unicode="&#xf48e;" 
d="M416 384h32v-144l-240 -272l-25 24l-23 -24l-160 160l256 288h160v-32zM160 -9l12 12l11 12l217 248v105v16v16h-137l-241 -272zM432 247v121h-16v-112l-221 -253l13 -12zM320 288c-18 0 -32 14 -32 32s14 32 32 32s32 -14 32 -32s-14 -32 -32 -32zM320 336
c-9 0 -16 -7 -16 -16s7 -16 16 -16s16 7 16 16s-7 16 -16 16z" />
    <glyph glyph-name="ion-ios-clock-outline" unicode="&#xf402;" horiz-adv-x="416" 
d="M208 400c115 0 208 -93 208 -208s-93 -208 -208 -208s-208 93 -208 208s93 208 208 208zM208 1c105 0 191 86 191 191s-86 191 -191 191s-191 -86 -191 -191s86 -191 191 -191zM208 192v128h17v-145h-113v17h96z" />
    <glyph glyph-name="ion-social-hackernews-outline" unicode="&#xf236;" horiz-adv-x="384" 
d="M352 352h-320v-320h320v320zM384 384v0v-384h-384v384h384zM233 289h45l-64 -120v-72h-40v72l-66 120h47l40 -84z" />
    <glyph glyph-name="ion-headphone" unicode="&#xf140;" horiz-adv-x="384" 
d="M383 210c3 -51 -3 -130 -13 -162c-20 -67 -40 -80 -72 -80s-58 27 -58 59v106c0 33 23 59 53 59c18 0 34 -9 44 -24c0 0 11 7 13 22s4 34 -5 64s-21 19 -36 38c-2 3 -5 7 -8 10l-10 10c-2 2 -3 3 -5 4c-11 9 -21 17 -34 23c-19 9 -39 13 -60 13s-42 -4 -61 -13
c-13 -6 -22 -14 -33 -23c-2 -1 -3 -2 -5 -4l-10 -10s-6 -7 -8 -10c-15 -19 -27 -8 -36 -38c-9 -31 -7 -49 -5 -64s13 -22 13 -22c10 15 26 24 44 24c30 0 53 -27 53 -59v-106c0 -32 -26 -59 -58 -59s-52 13 -72 80c-10 32 -16 111 -13 162c3 60 22 108 56 145v0
c8 8 15 16 24 23s19 13 29 18c25 13 53 20 82 20s57 -7 82 -20c10 -5 19 -11 28 -18s17 -15 25 -23v0c34 -37 53 -85 56 -145z" />
    <glyph glyph-name="ion-ios-photos" unicode="&#xf482;" 
d="M64 320h384v-320h-384v320zM384 384v-48h-336v-272h-48v320h384z" />
    <glyph glyph-name="ion-ios-contact" unicode="&#xf41a;" horiz-adv-x="416" 
d="M208 400c115 0 208 -93 208 -208s-93 -208 -208 -208s-208 93 -208 208s93 208 208 208zM208 1c59 0 111 27 146 69c-20 8 -66 24 -93 32c-2 1 -3 1 -3 11c0 8 4 16 7 23c4 8 7 21 9 32c4 5 10 14 14 32c3 16 2 22 0 28c0 0 -1 1 -1 2c-1 4 0 23 3 38c2 10 -1 34 -15 52
c-9 12 -26 26 -58 28h-18c-31 -2 -49 -16 -58 -28c-14 -18 -17 -42 -15 -52c3 -15 4 -34 3 -38v-2c-2 -6 -4 -12 -1 -28c4 -18 10 -28 14 -33c2 -11 5 -23 9 -31c3 -6 4 -13 4 -24c0 -10 -1 -9 -3 -10c-28 -8 -72 -24 -90 -32c35 -42 87 -69 146 -69z" />
    <glyph glyph-name="ion-bluetooth" unicode="&#xf116;" horiz-adv-x="256" 
d="M12 304c16 16 18 13 19 12l68 -65v0v0c2 -2 10 -10 10 -3v156v0v2c0 6 6 10 12 10c4 0 7 -2 9 -4v0s117 -113 122 -117s5 -10 1 -14l-84 -81s-4 -4 -4 -8s4 -8 4 -8l84 -81c4 -4 4 -10 -1 -14s-122 -117 -122 -117v0c-2 -2 -5 -4 -9 -4c-6 0 -12 4 -12 10v2v0v156
s-8 -1 -10 -3v0v-1l-68 -64c-1 -1 -3 -4 -19 12s-12 17 -11 18s90 86 90 86s4 3 4 8v0c0 5 -4 8 -4 8s-89 85 -90 86s-5 2 11 18zM152 328v-79c0 -8 8 -1 10 1l30 30s3 5 3 7s-1 5 -3 7l-30 30c-2 2 -10 11 -10 4zM152 135v-79s8 2 10 4l30 30c2 2 3 5 3 7s-1 5 -3 7l-30 30
c-2 2 -10 9 -10 1z" />
    <glyph glyph-name="ion-ios-reverse-camera" unicode="&#xf49f;" horiz-adv-x="384" 
d="M354 288c18 0 30 -14 30 -31v-176c0 -17 -12 -33 -30 -33h-320c-18 0 -34 16 -34 33v176c0 17 16 31 34 31h13v16h34v-16h13c32 36 43 48 55 48h88c12 0 23 -12 55 -48h62zM249 117l2 2l-11 12l-2 -2c-13 -11 -29 -17 -46 -17c-36 0 -66 29 -71 62h31l-39 50l-38 -50h30
c5 -42 42 -78 87 -78c21 0 41 7 57 21zM271 141l38 51h-30c-2 20 -11 43 -27 57c-16 15 -38 23 -60 23c-21 0 -41 -7 -57 -21l-2 -2l11 -12l2 2c13 11 29 17 46 17c36 0 66 -29 71 -64h-31z" />
    <glyph glyph-name="ion-ios-grid-view" unicode="&#xf441;" horiz-adv-x="384" 
d="M128 128v128h128v-128h-128zM0 384h384v-384h-384v384zM352 256v16h-80v80h-16v-80h-128v80h-16v-80h-80v-16h80v-128h-80v-16h80v-80h16v80h128v-80h16v80h80v16h-80v128h80z" />
    <glyph glyph-name="ion-android-settings" unicode="&#xf2f7;" horiz-adv-x="416" 
d="M366 171l47 -34c3 -3 4 -10 2 -14l-43 -71c-2 -4 -7 -7 -12 -5l-54 21c-12 -8 -23 -16 -36 -21l-8 -55c-1 -4 -6 -8 -11 -8h-85c-5 0 -10 3 -11 8l-8 55c-13 5 -25 13 -36 21l-54 -21c-4 -2 -10 1 -12 5l-43 71c-3 5 -2 11 2 14l45 34c0 7 -1 14 -1 21s1 14 1 21l-46 34
c-3 3 -4 10 -2 14l43 71c2 4 7 7 12 5l54 -21c12 8 23 16 36 21l8 55c1 4 6 8 11 8h85c5 0 10 -4 11 -8l7 -55c13 -5 25 -13 36 -21l53 21c4 2 11 -1 13 -5l43 -71c3 -5 2 -11 -2 -14l-45 -34c0 -7 1 -14 1 -21s0 -15 -1 -21zM207 119c41 0 75 32 75 73s-34 73 -75 73
s-74 -32 -74 -73s33 -73 74 -73z" />
    <glyph glyph-name="ion-social-pinterest" unicode="&#xf2b1;" 
d="M224 416c124 0 224 -100 224 -224s-100 -224 -224 -224c-22 0 -44 3 -64 9c8 14 18 31 23 48c3 10 16 62 16 62c8 -15 30 -28 54 -28c72 0 121 65 121 153c0 66 -56 129 -142 129c-106 0 -160 -76 -160 -140c0 -39 15 -73 46 -86c5 -2 10 0 12 6c1 4 3 14 4 18
c2 6 1 7 -3 12c-9 11 -15 24 -15 44c0 57 42 107 110 107c60 0 94 -36 94 -85c0 -65 -29 -119 -71 -119c-24 0 -42 19 -36 43c7 28 20 59 20 79c0 18 -10 34 -30 34c-24 0 -43 -25 -43 -58c0 -21 7 -36 7 -36s-25 -104 -29 -122c-4 -17 -5 -35 -4 -51
c-79 35 -134 113 -134 205c0 124 100 224 224 224z" />
    <glyph glyph-name="ion-person-stalker" unicode="&#xf212;" 
d="M393 123c42 -16 52 -26 53 -33c2 -9 2 -90 2 -90h-98c0 18 0 71 -1 77c-1 10 -1 29 -55 50c-8 3 -14 5 -19 7c18 8 15 15 15 28c0 19 -9 11 -15 47c-2 14 -4 5 -9 28c-3 12 1 12 1 18s-1 10 -2 22c-1 14 11 52 57 52s59 -38 58 -52c-1 -12 -2 -16 -2 -22
c-1 -6 4 -6 1 -18c-5 -23 -7 -14 -9 -28c-6 -36 -16 -28 -16 -47c0 -29 -2 -23 39 -39zM325 0h-163h-162s0 65 2 77c2 10 15 22 69 43c54 20 50 17 50 55c0 24 -12 8 -20 54c-3 18 -5 7 -11 36c-3 15 2 16 1 23s-2 14 -3 29c-2 19 15 67 74 67s77 -49 75 -67
c-1 -15 -2 -22 -3 -29s5 -8 2 -23c-6 -29 -9 -18 -12 -36c-8 -46 -20 -30 -20 -54c0 -32 -2 -36 31 -48c6 -2 11 -4 19 -7c54 -21 67 -33 69 -43c1 -6 2 -28 2 -47v-30z" />
    <glyph glyph-name="ion-record" unicode="&#xf21b;" horiz-adv-x="416" 
d="M208 -16c-115 0 -208 93 -208 208s93 208 208 208s208 -93 208 -208s-93 -208 -208 -208z" />
    <glyph glyph-name="ion-flag" unicode="&#xf279;" horiz-adv-x="384" 
d="M362 266c0 0 12 2 22 6c0 -16 -7 -32 -9 -36c-28 -50 -99 -123 -181 -84c-65 31 -92 30 -117 24c-1 0 -2 -1 -3 -1c-3 -1 -15 -5 -26 -1v197c0 16 14 31 33 35c39 7 106 5 148 -74c39 -74 97 -72 133 -66zM24 416c4 0 8 -4 8 -8v-432c0 -4 -4 -8 -8 -8h-16
c-4 0 -8 4 -8 8v432c0 4 4 8 8 8h16z" />
    <glyph glyph-name="ion-ios-stopwatch" unicode="&#xf4b5;" horiz-adv-x="384" 
d="M334 301c32 -35 50 -80 50 -128c0 -104 -86 -189 -192 -189s-192 85 -192 189c0 48 18 94 51 129l1 1h-18l-8 -8l-23 23l41 40l23 -22l-9 -9v-18c31 30 72 50 116 53h2v38h32v-38c43 -4 82 -21 113 -49l5 -5v19l-9 9l23 22l41 -40l-22 -23l-9 8h-18zM200 130
c14 4 24 15 24 30c0 14 -10 27 -24 31v129h-16v-129c-12 -4 -24 -17 -24 -31c0 -15 10 -26 24 -30l8 -18z" />
    <glyph glyph-name="ion-android-camera" unicode="&#xf2d3;" 
d="M161 168c0 35 28 63 63 63s63 -28 63 -63s-28 -63 -63 -63s-63 28 -63 63zM408 352c22 0 40 -18 40 -40v-272c0 -22 -18 -40 -40 -40h-368c-22 0 -40 18 -40 40v272c0 22 18 40 40 40h88l32 32h128l32 -32h88zM224 56c62 0 112 50 112 112s-50 112 -112 112
s-112 -50 -112 -112s50 -112 112 -112z" />
    <glyph glyph-name="ion-help" unicode="&#xf143;" horiz-adv-x="256" 
d="M217 371c25 -19 39 -46 39 -83c0 -22 -8 -42 -19 -57c-7 -9 -21 -21 -40 -36l-21 -14c-10 -8 -17 -18 -20 -28c-2 -6 -3 -19 -3 -29c0 -2 -1 -6 -7 -6h-62c-7 0 -7 3 -7 5c1 26 4 49 15 66c15 23 57 48 57 48c6 5 11 9 15 15c7 10 12 21 12 32c0 13 -3 26 -11 36
c-10 12 -21 18 -41 18s-32 -11 -40 -24s-7 -29 -7 -43h-77c0 54 14 88 44 108c20 14 45 20 75 20c39 0 70 -7 98 -28zM114 78c27 -1 47 -20 46 -48s-22 -46 -49 -45c-26 1 -46 19 -45 47s22 47 48 46z" />
    <glyph glyph-name="ion-ios-game-controller-b-outline" unicode="&#xf43a;" 
d="M276 244c11 0 20 -9 20 -20s-9 -20 -20 -20s-20 9 -20 20s9 20 20 20zM320 200c11 0 20 -9 20 -20s-9 -20 -20 -20s-20 9 -20 20s9 20 20 20zM103 264c22 0 39 -18 39 -40s-17 -40 -39 -40s-39 18 -39 40s17 40 39 40zM103 205c11 0 19 8 19 19s-8 19 -19 19
s-19 -8 -19 -19s8 -19 19 -19zM320 288c11 0 20 -9 20 -20s-9 -20 -20 -20s-20 9 -20 20s9 20 20 20zM364 244c11 0 20 -9 20 -20s-9 -20 -20 -20s-20 9 -20 20s9 20 20 20zM434 199c21 -88 18 -152 -7 -164c-4 -2 -9 -3 -13 -3c-22 0 -45 24 -68 52c-26 32 -32 33 -110 33
h-24c-78 0 -84 -1 -110 -33c-23 -28 -46 -52 -68 -52c-4 0 -9 1 -13 3c-25 12 -28 76 -7 164s43 136 88 149c10 3 18 4 26 4c28 0 47 -15 96 -15s68 15 96 15c8 0 16 -1 26 -4c45 -13 67 -61 88 -149zM420 49c10 5 23 48 -1 146c-21 90 -43 128 -78 138c-8 2 -14 3 -21 3
c-10 0 -19 -2 -30 -5c-16 -4 -36 -10 -66 -10s-50 6 -66 10c-11 3 -20 5 -30 5c-7 0 -13 -1 -21 -3c-35 -10 -57 -48 -78 -138c-24 -98 -11 -141 -1 -146c2 -1 4 -1 6 -1c6 0 14 4 23 12s19 18 32 34s24 28 44 34c17 5 38 5 79 5h24c41 0 62 0 79 -5c20 -6 31 -18 44 -34
s23 -26 32 -34s17 -12 23 -12c2 0 4 0 6 1z" />
    <glyph glyph-name="ion-ios-arrow-forward" unicode="&#xf3d1;" horiz-adv-x="192" 
d="M0 320l32 32l160 -160v0v0l-160 -160l-32 32l127 128z" />
    <glyph glyph-name="ion-social-designernews" unicode="&#xf22b;" 
d="M258 303l1 -53l-64 102zM297 352l151 -118v-202h-248l-200 157v0h63c46 0 77 33 77 82c0 20 -5 37 -15 51l-3 3l37 -29v-107h40l-2 99l64 -99h36v83v80zM98 270c0 -28 -14 -44 -40 -44h-19v89h19c26 0 40 -16 40 -45z" />
    <glyph glyph-name="ion-ios-gear" unicode="&#xf43d;" horiz-adv-x="384" 
d="M352 192c0 -21 14 -39 32 -46c-5 -20 -13 -40 -24 -57c-6 3 -13 4 -20 4c-13 0 -25 -4 -35 -14c-15 -15 -18 -37 -10 -55c-17 -11 -37 -19 -57 -24c-7 18 -25 32 -46 32s-39 -14 -46 -32c-20 5 -40 13 -57 24c8 18 5 40 -10 55c-10 10 -22 14 -35 14c-7 0 -14 -1 -20 -4
c-11 17 -19 37 -24 57c18 7 32 25 32 46s-13 39 -32 46c5 20 13 40 24 57c6 -3 13 -4 20 -4c13 0 25 4 35 14c15 15 18 37 10 55c17 11 37 19 57 24c7 -19 25 -32 46 -32s39 13 46 32c20 -5 40 -13 57 -24c-8 -18 -5 -40 10 -55c10 -10 22 -14 35 -14c7 0 14 1 20 4
c11 -17 19 -37 24 -57c-19 -7 -32 -25 -32 -46zM193 112c44 0 80 36 80 80s-36 80 -80 80s-80 -36 -80 -80s36 -80 80 -80z" />
    <glyph glyph-name="ion-ios-rose-outline" unicode="&#xf4a2;" horiz-adv-x="320" 
d="M284 295c-4 -1 -9 -3 -13 -4c-37 -11 -71 -24 -103 -39c-17 -8 -24 -12 -44 -24l-7 -4c-31 -18 -50 -33 -63 -51c-15 -21 -22 -45 -22 -77c0 -16 3 -30 9 -44c6 -13 14 -26 25 -36c23 -21 55 -32 94 -32s71 11 94 32c11 10 19 23 25 36c6 14 9 28 9 44c0 20 -5 40 -11 60
c-11 40 -23 83 7 139zM320 320v0c-77 -96 -16 -151 -16 -224s-56 -128 -144 -128s-144 55 -144 128s35 109 93 142c25 14 33 19 52 28c30 14 65 28 105 40c17 5 35 10 54 14zM38 325c14 -28 18 -57 19 -83c9 7 20 13 30 20c7 4 14 9 21 13c5 3 10 6 16 9c-5 4 -11 7 -17 11
c-22 13 -48 23 -69 30zM0 352v0s66 -15 115 -43c15 -8 28 -18 37 -29c-12 -6 -24 -12 -36 -19c-7 -4 -14 -8 -20 -12c-25 -16 -44 -31 -57 -42c5 41 2 98 -39 145zM249 367c-8 -1 -20 -2 -35 -7c-25 -8 -47 -20 -64 -36c8 -6 15 -12 21 -18c29 12 65 26 95 34
c-5 10 -12 20 -17 27zM256 384v0s26 -32 32 -55c-33 -8 -84 -25 -121 -42l-3 3c-9 11 -22 22 -39 32c52 60 131 62 131 62zM85 394c-6 -10 -10 -20 -14 -28c12 -4 22 -10 36 -17c4 5 9 10 14 14c-13 15 -27 25 -36 31zM80 416v0s35 -16 64 -56c-12 -9 -23 -20 -33 -31
c-26 13 -40 21 -61 27c5 15 15 38 30 60z" />
    <glyph glyph-name="ion-chevron-left" unicode="&#xf124;" horiz-adv-x="256" 
d="M86 192l167 -174c4 -4 4 -12 0 -16l-30 -31c-4 -4 -12 -4 -16 0l-204 213c-2 2 -3 5 -3 8s1 6 3 8l204 213c4 4 12 3 16 -1l30 -30c4 -4 4 -12 0 -16l-167 -174v0v0z" />
    <glyph glyph-name="ion-ios-musical-note" unicode="&#xf46b;" horiz-adv-x="192" 
d="M192 346v-1v-65c0 -3 -3 -6 -6 -5v0l-73 13v-192c0 -33 1 -80 -51 -82c-48 -2 -62 16 -62 41c0 19 9 39 51 41c22 1 37 1 45 1v273l90 -19l2 -1c2 0 3 -1 4 -3v0v-1v0z" />
    <glyph glyph-name="ion-ios-paw-outline" unicode="&#xf479;" horiz-adv-x="384" 
d="M380 252c6 -17 5 -38 -3 -57c-10 -25 -31 -43 -51 -43c-5 0 -10 1 -15 3c-22 10 -30 45 -17 79c10 28 31 46 51 46c5 0 10 -1 14 -3c10 -4 17 -13 21 -25zM362 202c6 15 7 31 2 44c-2 5 -5 12 -12 15c-2 1 -4 2 -7 2c-13 0 -28 -15 -36 -36c-9 -25 -6 -50 8 -56
c2 -1 5 -1 8 -1c14 0 29 13 37 32zM90 234c13 -34 5 -69 -17 -79c-5 -2 -10 -3 -15 -3c-20 0 -41 18 -51 43c-8 19 -9 40 -3 57c4 12 11 21 21 25c4 2 9 3 14 3c20 0 41 -18 51 -46zM67 171c14 6 17 31 8 56c-8 21 -23 36 -36 36c-3 0 -5 -1 -7 -2c-7 -3 -10 -10 -12 -15
c-5 -13 -4 -29 2 -44c8 -19 23 -32 37 -32c3 0 6 0 8 1zM134 237c-28 1 -52 32 -56 69c-2 23 4 45 16 60c8 10 19 17 31 18h6c27 -1 46 -29 50 -67c3 -24 -1 -48 -13 -63c-8 -9 -17 -15 -28 -16c-2 0 -4 -1 -6 -1zM107 356c-10 -12 -14 -29 -12 -48c3 -29 21 -53 40 -54h3
c6 1 12 4 17 10c10 12 12 31 10 51c-3 29 -17 52 -35 53h-3c-9 -1 -16 -7 -20 -12zM192 208c64 0 128 -76 128 -149c0 -22 -11 -40 -22 -47c-13 -9 -23 -12 -42 -12c-23 0 -29 8 -40 15c-8 5 -14 10 -24 10s-16 -5 -24 -10c-11 -7 -17 -15 -40 -15c-19 0 -29 3 -42 12
c-11 7 -22 25 -22 47c0 73 64 149 128 149zM290 27c6 4 14 16 14 32c0 30 -14 64 -36 91c-11 13 -23 24 -36 31c-13 8 -27 11 -40 11s-27 -3 -40 -11c-13 -7 -25 -18 -36 -31c-22 -27 -36 -61 -36 -91c0 -16 8 -28 14 -32c11 -7 18 -10 34 -10c14 0 19 4 26 9c2 1 4 3 6 4
c9 6 18 12 32 12s23 -6 32 -12c2 -1 4 -3 6 -4c7 -5 12 -9 26 -9c16 0 23 3 34 10zM244 238c-11 1 -20 7 -28 16c-12 15 -16 39 -13 63c4 38 23 66 50 67h7c12 -1 22 -8 30 -18c12 -15 18 -37 16 -60c-4 -37 -28 -67 -56 -68h-6zM219 315c-2 -20 0 -39 10 -51
c5 -6 11 -9 17 -10h3c19 1 38 25 41 54c2 19 -3 36 -13 48c-4 5 -10 11 -19 12h-4c-18 -1 -32 -24 -35 -53z" />
    <glyph glyph-name="ion-compose" unicode="&#xf12c;" horiz-adv-x="384" 
d="M379 348c7 -7 7 -18 0 -25l-32 -31l-55 55l31 32c7 7 18 7 25 0zM282 338l55 -55l-177 -173l-64 -14l14 64zM320 192l32 32v-201c0 -13 -10 -23 -23 -23h-306c-13 0 -23 10 -23 23v306c0 13 10 23 23 23h201l-32 -32h-149c-6 0 -11 -5 -11 -10v-268s4 -10 10 -10h269
s9 5 9 10v150z" />
    <glyph glyph-name="ion-ios-checkmark-outline" unicode="&#xf3fe;" horiz-adv-x="416" 
d="M292 271l18 -18l-134 -135c-2 -2 -6 -4 -9 -4s-7 2 -9 4l-56 56l18 18l47 -47zM208 400c115 0 208 -93 208 -208s-93 -208 -208 -208s-208 93 -208 208s93 208 208 208zM208 1c105 0 191 86 191 191s-86 191 -191 191s-191 -86 -191 -191s86 -191 191 -191z" />
    <glyph glyph-name="ion-android-cloud-done" unicode="&#xf378;" horiz-adv-x="480" 
d="M387 231c52 -3 93 -46 93 -99c0 -55 -45 -100 -100 -100h-260c-66 0 -120 54 -120 120c0 62 47 113 107 119c25 48 75 81 133 81c73 0 133 -52 147 -121zM197 85l141 141l-30 30l-111 -111l-44 45l-30 -30z" />
    <glyph glyph-name="ion-android-arrow-back" unicode="&#xf2ca;" horiz-adv-x="342" 
d="M342 213v-42h-260l119 -120l-30 -30l-171 171l171 171l31 -30l-120 -120h260z" />
    <glyph glyph-name="ion-android-refresh" unicode="&#xf3a8;" horiz-adv-x="352" 
d="M176 60c56 0 104 34 123 84h46c-21 -74 -88 -128 -169 -128c-98 0 -176 79 -176 176s79 176 176 176c48 0 92 -20 124 -52l52 52v-154h-154l70 70c-23 24 -56 40 -92 40c-73 0 -132 -59 -132 -132s59 -132 132 -132z" />
    <glyph glyph-name="ion-thumbsup" unicode="&#xf251;" horiz-adv-x="384" 
d="M360 189c10 -5 18 -17 18 -29c0 -14 -8 -25 -20 -30c4 -5 6 -12 6 -19c0 -14 -8 -25 -20 -30c3 -5 5 -11 5 -17c0 -18 -11 -24 -35 -30s-74 -12 -126 -9c-23 1 -55 7 -76 7v-32h-112v240h112v-16c15 1 31 4 40 14c22 23 40 65 40 108c0 19 -1 29 4 34c13 13 44 -9 52 -37
c9 -34 1 -62 -1 -87h103c19 0 34 -15 34 -34c0 -15 -10 -29 -24 -33zM48 32c9 0 16 7 16 16s-7 16 -16 16s-16 -7 -16 -16s7 -16 16 -16z" />
    <glyph glyph-name="ion-chatbox" unicode="&#xf11b;" horiz-adv-x="416" 
d="M76 48c-42 0 -76 31 -76 71v209c0 40 34 72 76 72h264c42 0 76 -32 76 -72v-209c0 -40 -34 -71 -76 -71h-4v-64s-79 54 -86 59s-7 5 -21 5h-153z" />
    <glyph glyph-name="ion-pull-request" unicode="&#xf345;" horiz-adv-x="384" 
d="M64 384c35 0 64 -29 64 -64c0 -24 -13 -44 -32 -55v-178c19 -11 32 -31 32 -55c0 -35 -29 -64 -64 -64s-64 29 -64 64c0 24 13 44 32 55v178c-19 11 -32 31 -32 55c0 35 29 64 64 64zM64 0c18 0 32 14 32 32s-14 32 -32 32s-32 -14 -32 -32s14 -32 32 -32zM64 288
c18 0 32 14 32 32s-14 32 -32 32s-32 -14 -32 -32s14 -32 32 -32zM351 88c20 -11 33 -32 33 -56c0 -35 -29 -64 -64 -64s-64 29 -64 64c0 23 12 44 31 55v156c0 16 -4 26 -11 33c-10 9 -26 12 -52 12v-64l-96 96l96 96v-64c42 1 74 -8 96 -29c21 -19 31 -46 31 -80v-155z
M320 0c18 0 32 14 32 32s-14 32 -32 32s-32 -14 -32 -32s14 -32 32 -32z" />
    <glyph glyph-name="ion-ios-keypad-outline" unicode="&#xf44f;" horiz-adv-x="384" 
d="M331 107c30 0 53 -24 53 -54s-23 -53 -53 -53s-54 23 -54 53s24 54 54 54zM331 16c21 0 37 16 37 37s-16 38 -37 38s-38 -17 -38 -38s17 -37 38 -37zM192 107c30 0 53 -24 53 -54s-23 -53 -53 -53s-53 23 -53 53s23 54 53 54zM192 16c21 0 37 16 37 37s-16 38 -37 38
s-37 -17 -37 -38s16 -37 37 -37zM53 107c30 0 54 -24 54 -54s-24 -53 -54 -53s-53 23 -53 53s23 54 53 54zM53 16c21 0 38 16 38 37s-17 38 -38 38s-37 -17 -37 -38s16 -37 37 -37zM331 245c30 0 53 -23 53 -53s-23 -53 -53 -53s-54 23 -54 53s24 53 54 53zM331 155
c21 0 37 16 37 37s-16 37 -37 37s-38 -16 -38 -37s17 -37 38 -37zM192 245c30 0 53 -23 53 -53s-23 -53 -53 -53s-53 23 -53 53s23 53 53 53zM192 155c21 0 37 16 37 37s-16 37 -37 37s-37 -16 -37 -37s16 -37 37 -37zM53 245c30 0 54 -23 54 -53s-24 -53 -54 -53
s-53 23 -53 53s23 53 53 53zM53 155c21 0 38 16 38 37s-17 37 -38 37s-37 -16 -37 -37s16 -37 37 -37zM331 277c-30 0 -54 24 -54 54s24 53 54 53s53 -23 53 -53s-23 -54 -53 -54zM331 368c-21 0 -38 -16 -38 -37s17 -38 38 -38s37 17 37 38s-16 37 -37 37zM192 384
c30 0 53 -23 53 -53s-23 -54 -53 -54s-53 24 -53 54s23 53 53 53zM192 293c21 0 37 17 37 38s-16 37 -37 37s-37 -16 -37 -37s16 -38 37 -38zM53 384c30 0 54 -23 54 -53s-24 -54 -54 -54s-53 24 -53 54s23 53 53 53zM53 293c21 0 38 17 38 38s-17 37 -38 37
s-37 -16 -37 -37s16 -38 37 -38z" />
    <glyph glyph-name="ion-film-marker" unicode="&#xf135;" horiz-adv-x="416" 
d="M400 240c9 0 16 -7 16 -15v-210c0 -8 -7 -15 -16 -15h-384c-9 0 -16 7 -16 15v210c0 8 6 14 13 15c-2 2 -3 4 -4 7l-9 45c-2 8 5 16 13 18l370 74c8 2 16 -4 18 -12l9 -46c2 -8 -4 -16 -12 -18l-342 -68h344zM257 46l-20 58l51 36h-62l-20 58l-19 -58h-63l51 -36l-19 -58
l50 36z" />
    <glyph glyph-name="ion-social-twitch" unicode="&#xf4ee;" horiz-adv-x="416" 
d="M32 416h384v-272l-112 -112h-80l-64 -64h-64v64h-96v304zM208 176v129h-48v-129h48zM320 176v129h-48v-129h48z" />
    <glyph glyph-name="ion-leaf" unicode="&#xf1fd;" horiz-adv-x="422" 
d="M412 69c18 -3 10 -41 -5 -39c0 0 -21 -1 -63 12c0 0 -16 -19 -39 -30c-26 -12 -118 -33 -197 38c-108 97 -120 354 -100 333c86 -90 197 -47 270 -106c55 -44 88 -127 77 -192c0 0 5 -8 57 -16zM316 65c5 5 10 16 10 24c-161 52 -252 160 -252 160s104 -143 242 -184z
" />
    <glyph glyph-name="ion-ios-world-outline" unicode="&#xf4d2;" horiz-adv-x="416" 
d="M208 400c115 0 208 -93 208 -208s-93 -208 -208 -208v0v0v0c-115 0 -208 93 -208 208s93 208 208 208v0v0v0zM216 276v-76h75c-1 31 -5 60 -11 84c-21 -5 -42 -7 -64 -8zM216 292c20 1 41 3 60 8c-14 46 -38 76 -60 82v-90zM200 382c-23 -6 -45 -36 -60 -82
c19 -5 39 -7 60 -8v90zM200 276c-22 1 -44 3 -65 8c-6 -24 -10 -53 -11 -84h76v76zM108 200c1 32 4 62 11 88c-21 6 -41 15 -59 25c-26 -31 -41 -70 -43 -113h91zM108 184h-91c2 -43 17 -82 43 -113c19 10 38 19 59 25c-7 26 -10 56 -11 88zM124 184c1 -31 5 -60 11 -84
c21 5 43 8 65 9v75h-76zM200 92c-21 -1 -41 -3 -60 -8c15 -46 37 -76 60 -82v90zM216 2c22 6 46 36 60 82c-19 5 -40 7 -60 8v-90zM216 109c22 -1 43 -4 64 -9c6 24 10 53 11 84h-75v-75zM308 184c-1 -32 -5 -62 -12 -88c21 -6 41 -15 60 -25c26 31 41 70 43 113h-91z
M308 200v0h91c-2 43 -17 82 -43 113c-19 -10 -38 -19 -59 -25c7 -26 10 -56 11 -88zM344 326c-25 25 -56 44 -91 52c16 -17 29 -43 39 -74c18 6 35 13 52 22zM163 378c-35 -8 -67 -27 -91 -52c16 -9 34 -15 52 -21c10 31 23 56 39 73zM72 58c25 -25 56 -44 91 -52
c-16 17 -30 43 -40 74c-18 -6 -35 -13 -51 -22zM253 6c35 8 66 27 91 52c-17 9 -34 16 -52 22c-10 -31 -23 -57 -39 -74z" />
    <glyph glyph-name="ion-ios-skipforward-outline" unicode="&#xf4ac;" horiz-adv-x="320" 
d="M241 352h79v-320h-79v142l-241 -142v320l241 -142v142zM233 188l7 4l-7 4l-217 128v0v-264zM304 48v288h-47v-126v-28v-8v-126h47z" />
    <glyph glyph-name="ion-battery-empty" unicode="&#xf112;" 
d="M438 256c6 0 10 -4 10 -10v-108c0 -6 -4 -10 -10 -10h-37v-54c0 -6 -4 -10 -10 -10h-381c-6 0 -10 4 -10 10v236c0 6 4 10 10 10h381c6 0 10 -4 10 -10v-54h37zM416 160v64h-15h-32v32v32h-337v-192h337v32v32h32h15z" />
    <glyph glyph-name="ion-ios-locked-outline" unicode="&#xf457;" horiz-adv-x="320" 
d="M264 224h56v-240h-320v240h56v72c0 57 47 104 104 104s104 -47 104 -104v-72zM72 296v-72h176v72c0 49 -39 88 -88 88s-88 -39 -88 -88zM304 0v208h-288v-208h288zM160 160c18 0 32 -14 32 -32c0 -15 -10 -27 -24 -31v-33h-16v33c-14 4 -24 16 -24 31c0 18 14 32 32 32z
M160 112c9 0 16 7 16 16s-7 16 -16 16s-16 -7 -16 -16s7 -16 16 -16z" />
    <glyph glyph-name="ion-log-in" unicode="&#xf29e;" 
d="M224 416c124 0 224 -100 224 -224s-100 -224 -224 -224c-96 0 -177 60 -209 144h34c9 -20 23 -40 39 -56c36 -36 85 -56 136 -56s100 20 136 56s56 85 56 136s-20 100 -56 136s-85 56 -136 56s-100 -20 -136 -56c-16 -16 -30 -36 -39 -56h-34c32 84 113 144 209 144z
M175 124l52 52h-227v32h227l-52 52l22 23l91 -91l-91 -91z" />
    <glyph glyph-name="ion-plane" unicode="&#xf214;" 
d="M250 136c0 -7 1 -69 -6 -102c-1 -4 3 -4 5 -7l51 -33c2 -2 3 -8 3 -8l1 -18l-68 16l-12 -32l-12 32l-68 -16l1 18s0 6 2 8l52 33c2 3 6 3 5 7c-7 33 -6 95 -6 102s-8 5 -8 5l-62 -13l-128 -49c0 23 2 26 9 31l183 131s5 63 5 113c0 24 12 78 27 78s27 -54 27 -78
c0 -53 5 -113 5 -113l183 -131c6 -4 9 -7 9 -31l-128 49l-62 13s-8 2 -8 -5z" />
    <glyph glyph-name="ion-edit" unicode="&#xf2bf;" 
d="M381 259l-250 -251l-91 91l251 250zM440 360c12 -12 11 -32 -2 -45l-45 -45l-91 91l45 45c13 13 33 14 45 2zM32 85l85 -85l-117 -32z" />
    <glyph glyph-name="ion-ios-barcode-outline" unicode="&#xf3db;" horiz-adv-x="416" 
d="M0 64v256h80v-16h-64v-224h64v-16h-80zM336 320h80v-256h-80v16h64v224h-64v16zM64 128v128h16v-128h-16zM336 128v128h16v-128h-16zM272 96v192h16v-192h-16zM128 96v192h16v-192h-16zM199 112v160h16v-160h-16z" />
    <glyph glyph-name="ion-close-circled" unicode="&#xf128;" 
d="M224 415c124 0 224 -100 224 -224s-100 -224 -224 -224s-224 100 -224 224s100 224 224 224zM332 116l-75 75l76 75c3 3 3 9 0 12l-22 21c-2 2 -4 3 -6 3s-3 -1 -5 -3l-76 -74l-76 74c-2 2 -3 3 -5 3s-4 -1 -6 -3l-21 -21c-3 -3 -3 -9 0 -12l76 -75l-76 -76
c-2 -1 -2 -3 -2 -5s0 -4 2 -6l21 -22c2 -2 4 -2 6 -2s4 0 6 2l75 76l76 -75c2 -2 3 -3 5 -3s4 1 6 3l21 21c2 1 3 4 3 6s-1 4 -3 6z" />
    <glyph glyph-name="ion-plus-circled" unicode="&#xf216;" 
d="M224 416c124 0 224 -100 224 -224s-100 -224 -224 -224s-224 100 -224 224s100 224 224 224zM352 176v32h-112v112h-32v-112h-112v-32h112v-112h32v112h112z" />
    <glyph glyph-name="ion-stats-bars" unicode="&#xf2b5;" horiz-adv-x="352" 
d="M96 32v320h64v-320h-64zM0 32v96h64v-96h-64zM192 32v160h64v-160h-64zM288 32v224h64v-224h-64z" />
    <glyph glyph-name="ion-ios-bell-outline" unicode="&#xf3e1;" horiz-adv-x="384" 
d="M318 222c0 -114 28 -126 66 -158h-384c38 32 66 44 66 158c0 98 53 130 102 138v2c0 12 11 22 24 22s24 -10 24 -22v-2c49 -7 102 -40 102 -138zM43 80h298c-25 25 -40 58 -40 142c0 46 -13 80 -37 101c-23 19 -52 23 -72 23s-49 -4 -72 -23c-25 -21 -37 -55 -37 -101
c0 -51 -5 -85 -17 -110c-6 -13 -14 -23 -23 -32zM192 0c-27 0 -49 20 -52 43h104c-3 -23 -25 -43 -52 -43z" />
    <glyph glyph-name="ion-android-contact" unicode="&#xf2d8;" horiz-adv-x="384" 
d="M267 110c59 -18 104 -58 117 -110h-384c13 52 58 92 117 110c22 -13 48 -20 75 -20s53 7 75 20zM192 384c73 0 132 -59 132 -132s-59 -132 -132 -132s-132 59 -132 132s59 132 132 132zM192 153c42 0 78 26 92 63h-184c14 -37 50 -63 92 -63z" />
    <glyph glyph-name="ion-android-send" unicode="&#xf2f6;" horiz-adv-x="416" 
d="M0 0v149l298 43l-298 43v149l416 -192z" />
    <glyph glyph-name="ion-email" unicode="&#xf132;" horiz-adv-x="416" 
d="M19 299c-4 2 -11 7 -13 11c-3 8 1 10 12 10h191h191c11 0 15 -2 12 -10c-2 -4 -9 -9 -13 -11c-11 -6 -163 -89 -169 -92s-12 -4 -21 -4s-15 1 -21 4s-158 86 -169 92zM408 295c9 4 8 -1 8 -5v-205c0 -9 -12 -21 -22 -21h-185h-185c-10 0 -24 12 -24 21v205s0 9 9 5
c8 -4 83 -56 132 -88l-83 -93c-2 -2 -2 -4 -1 -5s4 -1 6 1l98 83c15 -10 25 -16 27 -17c8 -4 14 -4 21 -4s13 0 21 4c2 1 12 7 27 17l98 -83c2 -2 5 -2 6 -1s0 3 -2 5l-82 93c49 32 123 84 131 88z" />
    <glyph glyph-name="ion-ios-arrow-back" unicode="&#xf3cf;" horiz-adv-x="192" 
d="M192 320l-127 -128l127 -128l-32 -32l-160 160v0v0l160 160z" />
    <glyph glyph-name="ion-android-arrow-dropdown-circle" unicode="&#xf35e;" horiz-adv-x="416" 
d="M208 400c115 0 208 -93 208 -208s-93 -208 -208 -208s-208 93 -208 208s93 208 208 208zM208 128l96 96h-192z" />
    <glyph glyph-name="ion-navicon" unicode="&#xf20e;" horiz-adv-x="320" 
d="M0 175v32h320v-32h-320zM0 271v32h320v-32h-320zM0 79v32h320v-32h-320z" />
    <glyph glyph-name="ion-android-clipboard" unicode="&#xf376;" horiz-adv-x="384" 
d="M341 368c23 0 43 -20 43 -43v-314c0 -23 -20 -43 -43 -43h-298c-23 0 -43 20 -43 43v314c0 23 20 43 43 43h87c7 28 32 48 62 48s55 -20 62 -48h87zM192 368c-12 0 -21 -9 -21 -21s9 -22 21 -22s21 10 21 22s-9 21 -21 21zM344 8v320h-40v-72h-224v72h-40v-320h304z" />
    <glyph glyph-name="ion-android-search" unicode="&#xf2f5;" horiz-adv-x="384" 
d="M274 143l110 -110l-33 -33l-109 110v17l-7 6c-25 -21 -58 -34 -93 -34c-79 0 -142 63 -142 142s63 143 141 143c79 0 142 -64 142 -143c0 -36 -13 -68 -34 -93l7 -5h18zM142 143c55 0 99 43 99 98s-44 99 -99 99s-98 -44 -98 -99s43 -98 98 -98z" />
    <glyph glyph-name="ion-arrow-graph-down-right" unicode="&#xf260;" 
d="M288 64l62 62l-94 98l-107 -107l-149 203l149 -128l107 112l131 -141l61 61v-160h-160z" />
    <glyph glyph-name="ion-android-arrow-up" unicode="&#xf366;" horiz-adv-x="342" 
d="M192 21h-42v260l-120 -119l-30 30l171 171l171 -171l-30 -31l-120 120v-260z" />
    <glyph glyph-name="ion-coffee" unicode="&#xf272;" horiz-adv-x="384" 
d="M319 191c37 -7 65 -40 65 -79c0 -20 -8 -39 -21 -54c-15 -17 -37 -26 -61 -26c-8 0 -17 1 -25 3c-6 1 -10 3 -15 5c-11 -15 -23 -25 -32 -33v0c-5 -5 -12 -7 -19 -7h-102c-7 0 -14 2 -19 7v0c-17 15 -41 36 -62 86s-28 91 -28 111s3 20 16 20h101c-5 17 -37 19 -37 46
c0 17 15 32 28 37c-2 -8 -3 -14 -3 -21c0 -19 39 -30 39 -53c0 -3 0 -6 -1 -9h56c1 5 2 10 2 14c0 36 -56 36 -56 84c0 28 21 55 47 62c-4 -14 -9 -23 -9 -35c0 -32 57 -50 57 -88c0 -13 -5 -25 -12 -37h76c13 0 16 0 16 -20c0 -4 0 -8 -1 -13zM302 64c33 0 50 25 50 48
s-17 43 -39 47c-4 -19 -11 -42 -21 -66c-4 -9 -8 -17 -12 -25c6 -3 13 -4 22 -4z" />
    <glyph glyph-name="ion-ios-skipbackward" unicode="&#xf4ab;" horiz-adv-x="320" 
d="M0 352h79v-142l241 142v-320l-241 142v-142h-79v320z" />
    <glyph glyph-name="ion-code-download" unicode="&#xf26f;" 
d="M299 164l-63 -63v0l-1 -1v0l-2 -1v0l-1 -1v0l-2 -1v0h-1v0h-1c-1 0 -3 -1 -4 -1s-3 1 -4 1h-1v0h-1v0l-2 1v0l-1 1v0c-1 1 -2 1 -3 2v0l-63 63c-6 6 -6 17 0 23s18 6 24 0l35 -34v118c0 9 7 17 16 17s16 -8 16 -17v-118l35 34c6 6 18 6 24 0s6 -17 0 -23zM136 56
c-6 0 -12 2 -17 7l-112 112c-9 9 -9 25 0 34l112 112c9 9 25 9 34 0s9 -25 0 -34l-95 -95l95 -95c9 -9 9 -25 0 -34c-5 -5 -11 -7 -17 -7zM312 56c-6 0 -12 2 -17 7c-9 9 -9 25 0 34l95 95l-95 95c-9 9 -9 25 0 34s25 9 34 0l112 -112c9 -9 9 -25 0 -34l-112 -112
c-5 -5 -11 -7 -17 -7z" />
    <glyph glyph-name="ion-social-tumblr" unicode="&#xf241;" horiz-adv-x="256" 
d="M193 52c21 0 42 6 63 20v-65c-18 -8 -34 -15 -48 -18s-28 -5 -45 -5c-19 0 -35 2 -50 7c-14 5 -28 12 -38 21s-17 18 -21 28s-6 25 -6 44v140h-48v58c16 5 30 14 42 24s19 21 26 35s11 37 14 59h62v-112h96v-64h-96v-101c0 -24 1 -40 4 -47c2 -7 7 -12 14 -16
c9 -6 19 -8 31 -8z" />
    <glyph glyph-name="ion-social-octocat" unicode="&#xf4e8;" 
d="M146 161c9 0 16 -4 22 -13s10 -20 10 -32s-4 -22 -10 -31s-14 -13 -22 -13c-9 0 -17 4 -23 13s-9 19 -9 31s3 24 9 32c6 9 14 13 23 13zM303 161c9 0 16 -4 22 -13s9 -20 9 -32s-3 -22 -9 -31s-13 -13 -22 -13s-18 4 -24 13s-9 19 -9 31s3 24 9 32c6 9 15 13 24 13z
M414 276c24 -27 34 -66 34 -96c0 -24 -1 -46 -6 -65c-6 -19 -13 -35 -21 -47c-9 -12 -19 -23 -32 -32s-24 -17 -34 -21s-22 -8 -36 -10c-13 -2 -24 -4 -31 -4c0 0 -28 -1 -64 -1s-64 1 -64 1c-7 0 -18 2 -31 4c-14 2 -26 6 -36 10s-22 12 -34 21c-13 9 -23 20 -32 32
c-8 12 -15 28 -21 47c-5 19 -6 41 -6 65c0 31 10 70 34 96c0 0 -2 14 0 39s7 48 16 69c30 -3 67 -20 112 -51c15 4 36 6 62 6c28 0 48 -2 62 -6c20 14 39 24 58 33c19 8 33 13 41 15s13 3 13 3c9 -21 14 -44 16 -69s0 -39 0 -39v0zM348 42c28 13 42 40 42 81
c0 24 -8 43 -26 59c-9 9 -20 13 -32 15s-31 1 -56 -1s-40 -4 -52 -4s-25 2 -42 3s-30 3 -39 3c-10 0 -20 1 -31 -2s-21 -7 -28 -14c-17 -15 -25 -35 -25 -59c0 -41 13 -68 41 -81c27 -13 69 -18 123 -18h2c54 0 95 5 123 18z" />
    <glyph glyph-name="ion-bonfire" unicode="&#xf315;" horiz-adv-x="384" 
d="M207 97l15 -89c1 -3 1 -5 1 -8c0 -18 -14 -32 -32 -32s-32 14 -32 32c0 2 0 5 1 7l15 92v0c2 7 8 13 16 13s15 -7 16 -15zM242 93v0v0v0zM329 58c9 -8 10 -25 0 -35s-27 -9 -35 0c-1 1 -2 3 -3 4l-49 66c-3 5 -2 11 2 15c5 5 10 5 16 1l64 -47c2 -1 3 -3 5 -4zM309 113v0
v0v0zM371 126c9 -1 13 -7 13 -19c0 -9 -10 -14 -18 -12l-57 18v0v0c-3 2 -6 5 -5 9s4 7 8 6zM75 113v0v0v0zM75 113v0l-58 -18c-8 -2 -17 3 -17 12c0 12 3 18 12 19l60 2c4 1 7 -2 8 -6s-2 -7 -5 -9v0zM124 109c5 4 11 4 16 -1c4 -4 5 -10 2 -15l-49 -66c-1 -1 -2 -3 -3 -4
c-10 -10 -25 -10 -35 0s-10 25 0 35c2 2 3 3 5 4zM288 320c0 -32 -9 -58 -50 -86c-37 -26 -94 -46 -110 -106c0 0 -58 24 -48 96s124 106 112 192c24 0 96 -35 96 -96zM288 192c-16 -50 -44 -64 -80 -64c-15 0 -32 9 -43 26c12 15 28 26 47 37c9 5 20 10 29 16
c21 14 38 31 47 49c5 -15 5 -48 0 -64zM88 288c-6 4 -9 14 -8 27c2 22 34 39 32 69c14 2 31 -3 42 -24c-5 -11 -15 -21 -28 -34s-26 -22 -38 -38z" />
    <glyph glyph-name="ion-unlocked" unicode="&#xf254;" horiz-adv-x="384" 
d="M22 -32c-12 0 -22 10 -22 22v212c0 12 10 22 22 22h3h19v31c0 42 17 87 43 115s64 46 105 46v0v0c41 0 79 -18 105 -46c20 -21 33 -51 39 -82h-53c-5 18 -13 35 -24 47v0v1c-18 19 -42 29 -67 29v0v0c-25 0 -49 -10 -67 -29v-1v0c-18 -19 -28 -53 -28 -80v-31h265
c12 0 22 -10 22 -22v-212c0 -12 -10 -22 -22 -22h-340z" />
    <glyph glyph-name="ion-social-windows" unicode="&#xf247;" 
d="M448 183v0v-215l-248 36v179h248zM184 183v0v-177l-184 27v150h184zM448 416v0v-217h-248v182zM184 378v0v-179h-184v153z" />
    <glyph glyph-name="ion-android-arrow-dropup" unicode="&#xf365;" horiz-adv-x="256" 
d="M0 128l128 128l128 -128h-256z" />
    <glyph glyph-name="ion-ios-copy-outline" unicode="&#xf41b;" horiz-adv-x="288" 
d="M192 352v-64h64v-16h-80v80h16zM213 384l75 -75v-261h-48v-48h-240v336h48v48h165zM224 16v32h-176v272h-32v-304h208zM272 64v238l-65 66h-143v-304h208z" />
    <glyph glyph-name="ion-android-people" unicode="&#xf39e;" 
d="M305 216c-34 0 -61 27 -61 60s27 60 61 60s62 -27 62 -60s-28 -60 -62 -60zM143 216c-34 0 -62 27 -62 60s28 60 62 60s61 -27 61 -60s-27 -60 -61 -60zM143 172c48 0 145 -23 145 -70v-54h-288v54c0 47 95 70 143 70zM305 161c48 0 143 -12 143 -59v-54h-128v54
c0 30 -9 41 -32 58c7 1 11 1 17 1z" />
    <glyph glyph-name="ion-ios-settings-strong" unicode="&#xf4a6;" 
d="M0 72h283c6 14 21 24 37 24s31 -10 37 -24h91v-32h-91c-6 -14 -21 -24 -37 -24s-31 10 -37 24h-283zM0 208h91c6 14 21 24 37 24s31 -10 37 -24h283v-32h-283c-6 -14 -21 -24 -37 -24s-31 10 -37 24h-91zM0 344h283c6 14 21 24 37 24s31 -10 37 -24h91v-32h-91
c-6 -14 -21 -24 -37 -24s-31 10 -37 24h-283z" />
    <glyph glyph-name="ion-arrow-swap" unicode="&#xf268;" horiz-adv-x="384" 
d="M0 120c0 4 4 8 8 8h248v64l128 -96l-128 -96v64h-248c-4 0 -8 4 -8 8v48zM384 264c0 -4 -4 -8 -8 -8h-248v-64l-128 96l128 96v-64h248c4 0 8 -4 8 -8v-48z" />
    <glyph glyph-name="ion-ios-tennisball" unicode="&#xf4bb;" horiz-adv-x="416" 
d="M0 196v0v0v0zM212 -16h1h-1v0zM208 400c115 0 208 -93 208 -208c0 -8 0 -16 -1 -24v0v0c-11 -97 -90 -174 -187 -183v0v0c-6 -1 -13 -1 -20 -1c-115 0 -208 93 -208 208v4v0v0c0 6 0 11 1 16v0v0c9 97 86 176 183 187v0v0c6 1 11 1 16 1v0v0h8zM83 181
c26 -10 48 -26 68 -46s36 -42 46 -68c8 -21 14 -44 15 -66c5 0 11 0 16 1c-3 53 -25 105 -65 145s-92 62 -145 65c-1 -5 -1 -11 -1 -16c22 -1 45 -7 66 -15zM250 234c41 -41 93 -63 147 -66c1 5 1 11 1 16c-24 1 -46 6 -68 15c-26 10 -49 26 -69 46s-36 43 -46 69
c-9 22 -14 44 -15 68c-5 0 -11 0 -16 -1c3 -54 25 -106 66 -147z" />
    <glyph glyph-name="ion-ios-bookmarks" unicode="&#xf3ea;" horiz-adv-x="418" 
d="M296 283l-23 -15v116h64v-116l-23 15l-9 6zM385 384c19 0 33 -13 33 -32v-286c0 -19 -14 -34 -33 -34h-143s-25 -4 -25 -19v-13h-8h-8v13c0 15 -11 19 -25 19h-143c-19 0 -33 15 -33 34v286c0 19 14 32 33 32h150s18 -8 18 -15v-329l8 -6l8 6v329s10 15 18 15h22v-146
l48 32l48 -32v146h32z" />
    <glyph glyph-name="ion-ios-eye" unicode="&#xf425;" horiz-adv-x="384" 
d="M383 192l1 -1l-6 -6c-21 -21 -47 -48 -78 -69c-36 -24 -72 -36 -108 -36c-83 0 -130 49 -185 105l-7 7l1 1c39 40 67 64 94 81c32 20 63 30 97 30c83 0 146 -60 191 -112zM192 112c44 0 80 36 80 80s-36 80 -80 80s-80 -36 -80 -80s36 -80 80 -80zM186 221
c0 -19 16 -35 35 -35c7 0 14 2 19 6v0c0 -27 -22 -48 -48 -48s-48 21 -48 48s22 48 48 48c-4 -5 -6 -12 -6 -19z" />
    <glyph glyph-name="ion-minus-circled" unicode="&#xf207;" 
d="M224 416c124 0 224 -100 224 -224s-100 -224 -224 -224s-224 100 -224 224s100 224 224 224zM352 176v32h-256v-32h256z" />
    <glyph glyph-name="ion-person" unicode="&#xf213;" horiz-adv-x="384" 
d="M384 0h-192h-192s0 26 2 40c2 11 17 25 81 49c63 23 60 12 60 55c0 28 -14 11 -23 64c-4 21 -6 7 -14 40c-4 17 3 19 2 27s-2 16 -4 33c-2 21 18 76 88 76s90 -55 88 -76c-2 -17 -3 -25 -4 -33s6 -10 2 -27c-8 -33 -10 -19 -14 -40c-9 -53 -23 -36 -23 -64
c0 -43 -3 -32 60 -55c64 -24 79 -38 81 -49c2 -14 2 -40 2 -40z" />
    <glyph glyph-name="ion-social-usd-outline" unicode="&#xf352;" horiz-adv-x="320" 
d="M125 345c11 2 19 3 19 3v-131l-22 6c-15 5 -27 11 -36 19c-12 10 -19 25 -19 43c0 13 4 24 11 33c6 8 13 14 22 19c7 4 17 6 25 8zM128 238v92c-7 -2 -15 -4 -21 -7c-7 -4 -12 -9 -17 -15s-7 -14 -7 -23c0 -13 4 -24 13 -31c8 -7 20 -12 32 -16zM252 151
c10 -10 15 -24 15 -42c0 -9 -1 -18 -5 -27s-11 -17 -20 -24c-8 -6 -18 -11 -31 -15c-6 -2 -11 -3 -17 -4s-18 -1 -18 -1v145l20 -5c10 -3 19 -6 28 -9c10 -4 20 -10 28 -18zM247 89c3 7 4 13 4 20c0 14 -3 24 -10 31s-15 11 -23 14s-16 5 -26 8v-107c6 1 10 2 14 3
c11 3 20 8 27 13s11 11 14 18zM315 145c3 -10 5 -19 5 -29c0 -21 -5 -38 -14 -53s-20 -26 -35 -35s-31 -17 -50 -21c-10 -2 -19 -3 -29 -4v-35h-64v35c-9 1 -19 4 -28 6c-20 5 -36 12 -51 23s-26 24 -35 41c-8 16 -13 34 -14 55h69c0 -12 2 -24 7 -33c5 -10 12 -17 21 -23
s20 -11 31 -14v120c-8 2 -18 4 -27 6c-17 4 -30 9 -41 16s-20 15 -27 23s-11 17 -14 26s-4 18 -4 28c0 18 4 34 12 48s19 25 33 34s29 16 46 20c7 2 15 3 22 4v33h64v-33c9 -1 16 -4 24 -6c18 -5 34 -12 48 -22s25 -22 33 -37c7 -13 11 -28 12 -46h-69c-3 21 -12 37 -26 46
c-7 4 -13 8 -22 10v-106c9 -2 16 -4 25 -6c12 -3 22 -6 27 -7c13 -4 23 -9 33 -15c10 -7 18 -14 24 -22s11 -17 14 -27zM293 72c7 12 11 27 11 44c0 8 -1 16 -4 24s-7 15 -12 22s-12 13 -20 19c-8 5 -18 10 -29 13c-5 1 -13 3 -24 6h-1l-4 1c-7 2 -13 4 -21 6l-13 3v137
s9 -1 19 -4s19 -6 28 -12c15 -9 25 -24 30 -43h38c-2 8 -4 15 -8 22c-7 13 -16 24 -28 32c-12 9 -27 16 -43 20c-8 2 -16 4 -23 5l-13 2v31h-32v-31l-14 -2c-7 -1 -14 -2 -20 -4c-15 -4 -29 -10 -41 -18s-21 -16 -28 -28c-7 -11 -10 -24 -10 -40c0 -8 1 -15 3 -23
c2 -7 6 -14 11 -21s14 -13 23 -19c10 -6 22 -10 37 -14v0v0c4 -1 8 -2 11 -3c5 -1 11 -3 16 -4l12 -3v-151s-8 1 -20 4s-26 8 -36 15c-11 8 -20 18 -26 30c-4 7 -6 16 -8 24h-36c2 -11 5 -23 10 -32c8 -14 17 -26 30 -35c13 -10 28 -16 46 -21c8 -2 17 -4 26 -5l14 -2v-33
h32v33l15 1c9 1 17 3 26 5c17 4 32 10 45 18s23 19 31 31z" />
    <glyph glyph-name="ion-ios-flower-outline" unicode="&#xf432;" 
d="M363 164c-29 0 -65 7 -93 14c-1 -3 -2 -6 -4 -9c25 -15 56 -36 76 -56c40 -40 53 -68 41 -80c-3 -3 -7 -4 -12 -4c-15 0 -38 15 -68 45c-20 20 -41 51 -56 76c-3 -2 -7 -3 -10 -4c7 -28 15 -64 15 -93c0 -56 -12 -85 -28 -85s-28 29 -28 85c0 29 8 65 15 93
c-3 1 -7 2 -10 4c-15 -25 -36 -56 -56 -76c-30 -30 -53 -45 -68 -45c-5 0 -9 1 -12 4c-12 12 1 40 41 80c20 20 51 41 76 56c-2 3 -3 6 -4 9c-28 -7 -64 -14 -93 -14c-56 0 -85 12 -85 28s29 28 85 28c29 0 65 -8 93 -15c1 3 2 7 4 10c-25 15 -56 35 -76 55
c-40 40 -53 68 -41 80c3 3 7 4 12 4c15 0 38 -14 68 -44c20 -20 41 -51 56 -76c3 2 7 3 10 4c-7 28 -15 64 -15 93c0 56 12 85 28 85s28 -29 28 -85c0 -29 -8 -65 -15 -93c3 -1 7 -2 10 -4c15 25 36 56 56 76c30 30 53 44 68 44c5 0 9 -1 12 -4c12 -12 -1 -40 -41 -80
c-20 -20 -51 -40 -76 -55c2 -3 3 -7 4 -10c28 7 64 15 93 15c56 0 85 -12 85 -28s-29 -28 -85 -28zM288 193v-3c30 -7 56 -10 75 -10c21 0 39 2 52 5c10 3 14 6 16 7c-2 1 -6 4 -16 7c-13 3 -31 5 -52 5c-19 0 -45 -4 -75 -11zM314 299c-14 -14 -30 -35 -46 -61l2 -2
c26 16 47 32 61 46c15 15 26 28 33 40c5 9 7 14 7 16c-4 0 -22 -4 -57 -39zM178 236l2 2c-16 26 -32 47 -46 61c-35 35 -53 39 -57 39c0 -2 2 -7 7 -16c7 -12 18 -25 33 -40c14 -14 35 -30 61 -46zM85 180c19 0 45 3 75 10v3c-30 7 -56 11 -75 11c-21 0 -39 -2 -52 -5
c-10 -3 -14 -6 -16 -7c2 -1 5 -4 15 -7c13 -3 32 -5 53 -5zM134 85c14 14 30 35 46 61l-2 2c-26 -16 -47 -32 -61 -46c-15 -15 -26 -29 -33 -41c-5 -9 -7 -14 -7 -16c4 0 22 5 57 40zM270 148l-2 -2c16 -26 32 -47 46 -61c35 -35 53 -40 57 -40c0 2 -2 7 -7 16
c-7 12 -18 26 -33 41c-14 14 -35 30 -61 46zM217 383c-3 -13 -5 -31 -5 -52c0 -19 4 -45 11 -75h2c7 30 11 56 11 75c0 21 -2 39 -5 52c-3 10 -6 14 -7 16c-1 -2 -4 -6 -7 -16zM231 0c3 13 5 32 5 53c0 19 -4 45 -11 75h-2c-7 -30 -11 -56 -11 -75c0 -21 2 -40 5 -53
c3 -10 6 -13 7 -15c1 2 4 5 7 15zM224 160c18 0 32 14 32 32s-14 32 -32 32s-32 -14 -32 -32s14 -32 32 -32zM313 42c10 -34 7 -53 -5 -58c-2 -1 -3 -1 -5 -1c-11 0 -25 13 -37 35c5 35 -2 76 -2 76s24 -34 49 -52zM302 -1c1 4 2 14 -3 34c-5 4 -10 9 -15 14
c0 -9 0 -17 -1 -25c10 -16 16 -22 19 -23zM182 365c-6 -35 1 -75 1 -75s-27 35 -48 51c-10 35 -7 54 5 59c2 1 3 1 5 1c11 0 24 -12 37 -36zM164 337c0 9 0 17 1 25c-10 16 -16 21 -19 22c-1 -4 -2 -14 3 -34c5 -4 10 -8 15 -13zM50 149c35 -4 76 2 76 2s-34 -24 -51 -48
c-12 -4 -26 -6 -35 -6c-13 0 -21 4 -24 11c-5 11 7 25 34 41zM66 117c4 5 8 10 13 15c-9 0 -17 0 -25 1c-16 -10 -21 -16 -22 -19c1 0 4 -1 8 -1c7 0 16 1 26 4zM432 276c5 -11 -7 -26 -34 -42c-35 5 -76 -2 -76 -2s33 25 51 49c13 4 26 5 35 5c13 0 21 -3 24 -10zM394 250
c16 10 21 16 22 19c-1 0 -4 1 -8 1c-7 0 -16 -1 -26 -4c-4 -5 -8 -9 -13 -14c9 0 17 -1 25 -2zM131 39c31 24 53 55 53 55s-7 -39 -3 -71c-15 -26 -28 -39 -39 -39c-2 0 -4 0 -6 1c-11 5 -13 24 -5 54zM143 1c4 2 12 8 22 26c0 6 -1 13 -1 20c-6 -6 -13 -12 -19 -17
c-4 -18 -3 -26 -2 -29zM312 398c11 -5 13 -22 5 -54c-29 -21 -53 -55 -53 -55s8 48 3 71c13 25 28 39 39 39c2 0 4 0 6 -1zM303 353c5 18 3 27 2 30c-4 -2 -12 -8 -22 -26c0 -6 1 -14 1 -21c6 6 13 12 19 17zM71 285c18 -24 55 -53 55 -53s-40 7 -70 3c-28 15 -43 32 -38 44
c3 7 10 11 22 11c8 0 21 -1 31 -5zM33 273c2 -4 8 -12 26 -22c6 0 13 1 20 1c-6 6 -12 12 -17 18c-8 2 -16 4 -22 4c-4 0 -6 -1 -7 -1zM392 149c30 -17 43 -33 38 -45c-3 -7 -10 -10 -22 -10c-8 0 -19 1 -31 5c-20 27 -55 52 -55 52s45 -8 70 -2zM408 110c4 0 6 1 7 1
c-2 4 -8 12 -26 22c-6 0 -13 -1 -20 -1c6 -6 12 -13 17 -19c8 -2 16 -3 22 -3z" />
    <glyph glyph-name="ion-ios-fastforward" unicode="&#xf427;" 
d="M224 320v0l224 -128l-224 -128v123l-224 -123v256l224 -123v123z" />
    <glyph glyph-name="ion-ios-sunny-outline" unicode="&#xf4b6;" horiz-adv-x="320" 
d="M151 296v56h18v-56h-18zM151 32v60h18v-60h-18zM264 183v18h56v-18h-56zM0 183v18h60v-18h-60zM240 130l34 -34l-12 -12l-33 34zM64 306l34 -33l-12 -12l-34 34zM229 272l33 34l12 -12l-34 -33zM52 96l34 34l11 -12l-33 -34zM160 116c-42 0 -76 34 -76 76s34 76 76 76
s76 -34 76 -76s-34 -76 -76 -76zM160 251c-32 0 -59 -27 -59 -59s27 -59 59 -59s59 27 59 59s-27 59 -59 59z" />
    <glyph glyph-name="ion-social-instagram" unicode="&#xf351;" horiz-adv-x="384" 
d="M112 192c0 44 36 80 80 80s80 -36 80 -80s-36 -80 -80 -80s-80 36 -80 80zM113 271c-13 -13 -23 -29 -28 -47h-85v112c0 27 22 48 49 48h288c27 0 47 -21 47 -48v-112h-84c-5 18 -15 34 -28 47c-21 21 -50 33 -80 33s-58 -12 -79 -33zM352 300v39c0 7 -6 13 -13 13h-38
c-7 0 -13 -6 -13 -13v-39c0 -7 6 -12 13 -12h38c7 0 13 5 13 12zM272 113c21 21 32 50 32 79h80v-144c0 -27 -20 -48 -47 -48h-288c-27 0 -49 21 -49 48v144h81c0 -29 11 -58 32 -79s49 -33 79 -33s59 12 80 33z" />
    <glyph glyph-name="ion-iphone" unicode="&#xf1fa;" horiz-adv-x="192" 
d="M168 384c13 0 24 -11 24 -24v-336c0 -13 -11 -24 -24 -24h-144c-13 0 -24 11 -24 24v336c0 13 11 24 24 24h144zM80 348v0c0 -2 2 -4 4 -4h24c2 0 4 2 4 4v0c0 2 -2 4 -4 4h-24c-2 0 -4 -2 -4 -4zM68 352c-2 0 -4 -2 -4 -4s2 -4 4 -4s4 2 4 4s-2 4 -4 4zM96 16
c9 0 16 7 16 16s-7 16 -16 16s-16 -7 -16 -16s7 -16 16 -16zM176 64v256h-160v-256h160z" />
    <glyph glyph-name="ion-social-android-outline" unicode="&#xf224;" horiz-adv-x="352" 
d="M272 240h-192v-60v-89h24h16v-15v-52c0 -4 4 -8 8 -8s8 4 8 8v52v15h17h49h15v-15v-52c0 -2 1 -4 3 -6h1v0c1 -1 2 -2 4 -2h1v0v0c4 0 7 4 7 8v52v15h17h22v89v60zM288 256v0v-76v-90c0 -7 -3 -15 -10 -15h-29v-51c0 -13 -10 -24 -23 -24v0h-1c-6 0 -11 2 -15 5
c-5 4 -9 11 -9 19v51h-49v-51c0 -13 -11 -24 -24 -24s-24 11 -24 24v51h-28c-7 0 -12 8 -12 15v90v76h224zM328 256c-4 0 -8 -4 -8 -8v-96c0 -4 4 -8 8 -8s8 4 8 8v96c0 4 -4 8 -8 8zM328 272v0c13 0 24 -11 24 -24v-96c0 -13 -11 -24 -24 -24s-24 11 -24 24v96
c0 13 11 24 24 24zM24 256c-4 0 -8 -4 -8 -8v-96c0 -4 4 -8 8 -8s8 4 8 8v96c0 4 -4 8 -8 8zM24 272v0c13 0 24 -11 24 -24v-96c0 -13 -11 -24 -24 -24s-24 11 -24 24v96c0 13 11 24 24 24zM175 354c-14 0 -27 -3 -38 -6l-10 -4c-28 -12 -40 -37 -44 -56h186
c-4 18 -15 43 -44 56l-10 4c-12 4 -25 6 -39 6v0v0h-1zM105 384v0h1l19 -23c13 5 30 9 50 9h1c20 0 36 -4 50 -9l20 23v0s1 -1 2 -1c1 -1 2 -3 2 -3l-19 -22c48 -21 56 -71 57 -86h-224c1 15 9 66 57 87l-19 22c0 1 1 1 2 2zM127 309c-7 0 -14 6 -14 13s6 14 14 14
c7 0 13 -7 13 -14s-5 -13 -13 -13zM225 309c-7 0 -13 6 -13 13s5 14 13 14c7 0 13 -7 13 -14s-6 -13 -13 -13z" />
    <glyph glyph-name="ion-minus" unicode="&#xf209;" horiz-adv-x="384" 
d="M0 160v64h384v-64h-384z" />
    <glyph glyph-name="ion-social-tux" unicode="&#xf2c5;" horiz-adv-x="383" 
d="M189 347c2 2 -1 -1 0 0c2 2 4 4 6 5c-3 -2 -5 -4 -7 -8c0 1 0 2 1 3zM361 52c7 -4 23 -11 21 -22c-2 -10 -17 -15 -24 -19c-15 -8 -28 -14 -41 -25c-9 -8 -17 -15 -29 -17c-11 -2 -25 -1 -33 8c-5 5 -7 11 -15 12c-25 5 -54 4 -79 0c-13 -2 -21 -11 -32 -17
c-10 -5 -20 -5 -30 -1c-13 5 -27 10 -41 13s-29 5 -43 9c-31 8 -5 30 -11 50c-3 12 -10 29 8 30c9 1 27 -1 31 11c2 7 -2 15 2 22s-1 17 1 25c4 18 19 32 25 49c5 14 8 25 18 37c9 11 22 22 29 34c10 18 9 35 8 55c-1 17 -1 33 -2 50c0 33 20 60 58 60h14
c38 0 63 -32 64 -69c0 -19 -5 -38 5 -67c15 -27 36 -48 52 -73c10 -16 16 -31 20 -49c3 -14 9 -31 7 -45c-1 -6 -2 -9 -4 -11c3 -1 7 -2 9 -5c3 -4 2 -11 0 -26c-1 -8 5 -15 12 -19zM137 -3c2 20 -15 39 -25 56c-10 16 -21 43 -39 52c-8 4 -19 5 -23 -5c-2 -7 0 -19 -2 -22
c-4 -9 -14 -10 -23 -11c-6 0 -17 0 -17 -8c1 -10 10 -20 7 -30c-2 -7 -8 -12 -8 -19c0 -14 38 -15 47 -17c19 -4 37 -14 57 -16c12 -1 25 7 26 20zM253 62c-2 10 2 -10 0 0s-5 28 1 35c4 5 10 6 17 5c0 4 1 9 3 12c8 13 29 8 39 0l-1 2c-3 4 -8 9 -13 10c0 0 4 12 2 34
c-4 40 -33 62 -33 62c27 -30 27 -58 27 -72c0 -6 -1 -18 -4 -24c-4 -1 -7 -2 -11 -4c-10 -5 -8 2 -8 10c0 18 -2 36 -7 54c-3 9 -7 17 -13 24c-4 5 -4 9 -5 15c-3 12 -9 22 -16 32c-7 9 -7 17 -5 28c1 7 2 14 -6 17c-6 2 -26 5 -27 14c-1 6 -1 16 5 20c16 14 30 -11 17 -24
c-3 -3 7 -4 8 -4c4 1 4 7 5 10c1 4 1 9 1 13c0 17 -18 32 -34 21c-6 -4 -9 -11 -10 -17c0 -2 -1 -20 0 -20c-4 0 -7 5 -11 5c-3 0 -7 0 -10 -1c0 0 2 14 -2 22c-4 9 -18 16 -24 4s-3 -25 0 -31s4 -6 4 -6c2 1 5 4 5 4s-6 3 -7 11c-1 9 3 14 7 15s10 -2 12 -8s0 -13 0 -13
c-7 -6 -30 -18 -22 -28c14 -18 33 -15 52 -9c8 3 18 5 24 12c3 3 11 2 8 -4c-2 -5 -18 -7 -22 -9c-9 -4 -18 -8 -28 -10c-6 -1 -13 -5 -28 9c7 -6 8 -16 17 -20c13 -6 33 9 44 15c1 1 16 5 14 0c-1 -4 -11 -7 -15 -9c-11 -6 -23 -21 -36 -22c-8 -1 -21 16 -25 22
c-1 1 -5 9 -6 4c-1 -8 2 -14 -3 -21c-6 -9 -11 -18 -13 -29c-1 -6 0 -11 -3 -16c-11 -15 -17 -33 -19 -51c0 -4 3 -43 -5 -41c-18 5 -17 33 -14 47c-3 -12 -8 -30 2 -44c12 -15 99 -55 53 -80c7 -14 14 -25 12 -41c8 7 2 20 -1 28c0 0 17 -12 38 -10c17 2 32 7 46 16
c6 4 11 9 16 14c1 2 4 6 6 7l1 -11c2 -17 -12 -27 -10 -34c4 8 11 14 13 24c3 12 0 24 -2 36zM155 323v0v-3c2 0 2 5 1 8c-1 4 -3 6 -4 6h-2c3 -2 5 -6 5 -11zM210 335c3 -2 0 0 0 0c3 -2 5 -5 5 -10v-3c2 0 3 4 2 7s-3 6 -5 6h-2zM347 15c24 11 -24 -10 0 0
c24 11 35 17 20 26c-17 10 -26 13 -26 29c0 5 4 16 2 22c-1 4 -6 5 -9 5c-10 -10 -17 -25 -34 -25c-14 0 -25 11 -28 24c-4 2 -10 1 -13 -4c-6 -12 1 -29 3 -41c2 -18 -4 -35 -2 -53c2 -21 26 -22 40 -13c16 10 29 22 47 30z" />
    <glyph glyph-name="ion-wifi" unicode="&#xf25c;" 
d="M224 352c80 0 156 -30 214 -84l10 -10l-10 -9l-32 -32l-10 -10l-9 9c-44 41 -103 64 -163 64s-119 -23 -163 -64l-9 -9l-10 10l-32 32l-10 9l10 10c58 54 134 84 214 84v0zM365 192l11 -10l-10 -10l-33 -32l-9 -9l-10 8c-25 22 -57 35 -90 35s-65 -13 -90 -35l-10 -8
l-9 9l-33 32l-10 10l11 10c37 33 83 52 132 54v0h9v0v0c52 0 102 -19 141 -54zM224 32l-10 10l-52 52l-11 10l12 10c17 11 32 20 61 20s47 -9 62 -20l11 -10l-10 -10l-53 -52z" />
    <glyph glyph-name="ion-cube" unicode="&#xf318;" 
d="M435 280c7 0 13 -6 13 -12v-183c0 -9 -6 -17 -14 -22v-1l-175 -92v-1c-2 -1 -4 -1 -6 -1c-7 0 -13 6 -13 12v185c0 9 5 17 13 22v0l3 2l172 89l2 1c2 1 3 1 5 1zM422 329c0 0 8 -3 8 -9c0 -7 -8 -11 -8 -11l-183 -97l-2 -1c-4 -2 -8 -3 -13 -3s-9 1 -13 3l-2 1l-183 96
s-8 5 -8 12c0 6 8 9 8 9l181 82s11 5 17 5s17 -5 17 -5zM195 187c8 -5 13 -13 13 -22v-185c0 -6 -6 -12 -13 -12c-2 0 -4 1 -6 2v0l-175 92v1c-8 5 -14 13 -14 22v183c0 6 6 12 13 12c2 0 4 0 5 -1l2 -1l171 -89z" />
    <glyph glyph-name="ion-pie-graph" unicode="&#xf2a5;" 
d="M1 192c0 5 -1 11 -1 16c0 115 93 208 208 208c5 0 11 -1 16 -1v-32v-191h-191h-32zM78 46c-26 32 -42 71 -45 114h223v223c43 -3 82 -19 114 -45c47 -38 78 -96 78 -162c0 -115 -93 -208 -208 -208c-66 0 -124 31 -162 78z" />
    <glyph glyph-name="ion-social-yen" unicode="&#xf4f2;" horiz-adv-x="384" 
d="M384 416l-112 -208h48v-48h-73l-15 -31v-17h88v-48h-88v-96h-80v96h-88v48h88v17l-14 31h-74v48h48l-112 208h80l112 -221l112 221h80z" />
    <glyph glyph-name="ion-social-bitcoin-outline" unicode="&#xf2ae;" horiz-adv-x="320" 
d="M184 400h-8v-48v-16h-16h-32h-16v16v48h-9v-48v-16h-16h-72v-16h13c11 0 19 0 25 -3s10 -7 13 -13s3 -8 3 -20v-178c0 -11 0 -18 -3 -24v-1c-1 -3 -4 -10 -12 -14h-1c-5 -3 -8 -3 -17 -3h-13l-3 -16h67h16v-16v-48h9v48v16h16h32h16v-16v-48h8v49v16h15c23 1 41 5 55 10
c16 6 28 15 37 26c8 11 12 29 13 42c1 14 -1 29 -4 36s-8 16 -21 23c-7 4 -14 6 -21 8l-46 11l43 19c4 2 7 4 12 9c6 5 9 12 11 16c2 5 4 13 3 22c-1 17 -4 29 -10 37c-7 9 -17 16 -31 21c-12 5 -24 7 -41 8l-15 1v15v47zM200 416v0v-63c20 -1 32 -4 45 -9
c16 -6 29 -15 38 -27s12 -28 13 -45c1 -10 0 -20 -3 -28s-8 -16 -16 -23c-6 -6 -11 -9 -16 -11c9 -2 17 -6 25 -10c15 -8 24 -18 29 -30c4 -10 6 -30 5 -44c-1 -16 -6 -37 -16 -51c-11 -14 -26 -24 -45 -31c-15 -6 -33 -10 -59 -11v-65h-40v64h-32v-64h-41v64h-87l8 48h28
c9 0 8 1 11 2s4 3 5 6s1 9 1 18v178c0 9 0 10 -1 12s-3 4 -6 6s-9 2 -18 2h-28v48h87v64h41v-64h32v64h40zM160 298v-74h-32v74h32zM160 176v0v-90h-32v90h32zM200 294v0c6 -2 10 -7 14 -12c4 -6 6 -13 6 -21s-2 -15 -7 -21c-4 -5 -7 -9 -13 -12v66zM200 174v0
c5 -1 8 -1 12 -3c8 -3 14 -7 19 -13s8 -15 8 -24c0 -11 -2 -19 -10 -26s-13 -11 -23 -15c-2 -1 -4 0 -6 -1v82z" />
    <glyph glyph-name="ion-social-twitter" unicode="&#xf243;" horiz-adv-x="472" 
d="M472 338c-13 -20 -29 -36 -48 -50v-12c0 -128 -98 -276 -276 -276c-55 0 -105 16 -148 44c8 -1 15 -2 23 -2c45 0 87 16 120 42c-42 1 -78 29 -90 67c6 -1 12 -2 18 -2c9 0 18 2 26 4c-44 9 -78 48 -78 95v1c13 -7 28 -12 44 -12c-26 17 -43 47 -43 81c0 18 5 34 13 48
c48 -59 119 -97 199 -101c-2 7 -2 14 -2 22c0 54 43 97 97 97c28 0 52 -12 70 -31c22 4 43 13 62 24c-7 -23 -23 -42 -43 -54c20 2 39 7 56 15z" />
    <glyph glyph-name="ion-ios-paper-outline" unicode="&#xf471;" horiz-adv-x="384" 
d="M48 384h336v-353c0 -17 -14 -31 -31 -31h-322c-17 0 -31 14 -31 31v305h32v-16h-16v-289c0 -8 7 -15 15 -15h322c8 0 15 7 15 15v337h-304v-320h-16v320v16zM96 320v16h128v-16h-128zM96 240v16h240v-16h-240zM96 160v16h192v-16h-192zM96 80v16h240v-16h-240z" />
    <glyph glyph-name="ion-ios-personadd" unicode="&#xf480;" horiz-adv-x="320" 
d="M320 295v-14h-25v-25h-14v25h-25v14h25v25h14v-25h25zM267 84c13 -5 53 -20 53 -52h-160h-160c0 32 40 47 53 52s31 6 43 9c7 2 17 5 20 9s1 41 1 41s-6 10 -9 18s-7 32 -7 32s-7 0 -9 12c-2 13 -6 17 -6 27c0 9 5 10 5 10v0s-4 13 -5 42c-1 34 25 68 74 68
s75 -34 74 -68c-1 -29 -5 -42 -5 -42v0s5 -1 5 -10c0 -10 -3 -15 -6 -28c-2 -12 -9 -12 -9 -12s-4 -23 -7 -31s-9 -18 -9 -18s-2 -37 1 -41s13 -7 20 -9c12 -3 30 -4 43 -9z" />
    <glyph glyph-name="ion-ios-toggle" unicode="&#xf4c3;" 
d="M96 128c26 0 48 -22 48 -48s-22 -48 -48 -48s-48 22 -48 48s22 48 48 48zM352 176c53 0 96 -43 96 -96s-43 -96 -96 -96h-256c-53 0 -96 43 -96 96s43 96 96 96h256zM96 16c35 0 64 29 64 64s-29 64 -64 64s-64 -29 -64 -64s29 -64 64 -64zM352 256c-26 0 -48 22 -48 48
s22 48 48 48s48 -22 48 -48s-22 -48 -48 -48zM96 208c-53 0 -96 43 -96 96s43 96 96 96h256c53 0 96 -43 96 -96s-43 -96 -96 -96h-256zM352 368c-35 0 -64 -29 -64 -64s29 -64 64 -64s64 29 64 64s-29 64 -64 64z" />
    <glyph glyph-name="ion-android-close" unicode="&#xf2d7;" horiz-adv-x="298" 
d="M298 311l-119 -119l119 -119l-30 -30l-119 119l-119 -119l-30 30l119 119l-119 119l30 30l119 -119l119 119z" />
    <glyph glyph-name="ion-ios-box" unicode="&#xf3ec;" horiz-adv-x="320" 
d="M16 48v192h288v-192h-288zM128 208c-9 0 -16 -7 -16 -16s7 -16 16 -16h64c9 0 16 7 16 16s-7 16 -16 16h-64zM0 336h320v-80h-16h-288h-16v80z" />
    <glyph glyph-name="ion-funnel" unicode="&#xf31b;" 
d="M224 416c124 0 224 -36 224 -80c0 -8 -3 -15 -9 -22v0c-35 -43 -151 -179 -151 -218v-4v-83v0c0 -23 -29 -41 -64 -41s-64 18 -64 41v0v87c0 39 -117 177 -149 216v0c-7 8 -11 16 -11 24c0 44 100 80 224 80zM224 288c92 0 176 22 176 48s-83 48 -176 48
s-176 -22 -176 -48s84 -48 176 -48z" />
    <glyph glyph-name="ion-android-locate" unicode="&#xf2e9;" 
d="M224 272c44 0 80 -36 80 -80s-36 -80 -80 -80s-80 36 -80 80s36 80 80 80zM415 213h33v-42h-33c-10 -89 -81 -160 -170 -170v-33h-42v33c-89 10 -160 81 -170 170h-33v42h33c10 89 81 160 170 170v33h42v-33c89 -10 160 -81 170 -170zM224 43c82 0 149 67 149 149
s-67 149 -149 149s-149 -67 -149 -149s67 -149 149 -149z" />
    <glyph glyph-name="ion-bookmark" unicode="&#xf26b;" horiz-adv-x="192" 
d="M184 384c4 0 8 -4 8 -8v-56h-192v56c0 4 4 8 8 8h176zM0 0v304h192v-304l-96 96z" />
    <glyph glyph-name="ion-bag" unicode="&#xf110;" 
d="M416 288l32 -320h-448l32 320h64v4c0 68 56 124 124 124h8c68 0 124 -56 124 -124v-4h64zM128 292v-4h192v4c0 51 -41 92 -92 92v0h-8c-51 0 -92 -41 -92 -92zM36 0h376l-25 256h-35v-36c10 -6 16 -16 16 -28c0 -18 -14 -32 -32 -32s-32 14 -32 32c0 12 6 22 16 28v36
h-192v-36c10 -6 16 -16 16 -28c0 -18 -14 -32 -32 -32s-32 14 -32 32c0 12 6 22 16 28v36h-35z" />
    <glyph glyph-name="ion-ios-cloudy-night" unicode="&#xf40e;" horiz-adv-x="384" 
d="M361 142c8 0 15 2 23 4c-4 -7 -9 -15 -14 -21c-21 -24 -50 -40 -84 -44h-3c4 10 7 21 7 32c0 22 -9 43 -24 58c-14 15 -33 23 -53 24c-6 16 -16 29 -29 40c-10 8 -20 13 -32 17v2c14 36 45 65 82 77c8 2 16 4 24 5c-5 -6 -9 -13 -12 -20c-8 -16 -12 -34 -12 -52
c0 -32 12 -63 35 -86s54 -36 86 -36h6zM125 239v0c37 0 68 -26 76 -61h8c36 0 65 -29 65 -65s-29 -66 -65 -66h-157c-28 0 -52 24 -52 53c0 27 21 51 47 53v7c0 43 35 79 78 79z" />
    <glyph glyph-name="ion-social-chrome" unicode="&#xf4db;" 
d="M157 192c0 37 30 67 67 67s67 -30 67 -67s-30 -67 -67 -67s-67 30 -67 67zM445 230c2 -12 3 -25 3 -38c0 -106 -74 -195 -174 -218c-10 -2 -20 -4 -30 -5c-7 -1 -13 -1 -20 -1c-8 0 -17 0 -25 1v0v0v0v1l102 177c8 13 13 28 13 45c0 27 -13 50 -32 67h156
c3 -9 5 -19 7 -29v0c-2 10 -4 20 -7 29v0c3 -9 5 -19 7 -29v0zM224 103c10 0 20 2 29 5l-78 -135v0c-42 9 -79 30 -108 59c-42 41 -67 97 -67 160c0 31 6 61 18 88c7 16 16 31 26 45v0l103 -178c16 -27 43 -44 77 -44zM59 343v0v1c24 26 55 47 90 59c23 8 49 13 75 13
c73 0 138 -36 179 -90h1c10 -14 18 -29 25 -44v0c-7 15 -15 30 -25 44h-1c10 -14 19 -29 26 -44h-205c-44 0 -79 -32 -87 -72z" />
    <glyph glyph-name="ion-android-watch" unicode="&#xf3bd;" horiz-adv-x="320" 
d="M320 192c0 -51 -24 -96 -61 -125l-19 -115h-160l-19 115c-37 29 -61 74 -61 125s24 96 61 125l19 115h160l19 -115c37 -29 61 -74 61 -125zM40 192c0 -66 54 -120 120 -120s120 54 120 120s-54 120 -120 120s-120 -54 -120 -120z" />
    <glyph glyph-name="ion-social-reddit-outline" unicode="&#xf23a;" horiz-adv-x="449" 
d="M259 160c0 18 14 31 32 31s32 -13 32 -31s-14 -32 -32 -32s-32 14 -32 32zM127 160c0 18 14 31 32 31s32 -13 32 -31s-14 -32 -32 -32s-32 14 -32 32zM449 197c0 -20 -11 -37 -27 -45c1 -5 1 -9 1 -14c0 -76 -88 -138 -198 -138s-199 61 -199 137c0 5 0 10 1 15
c-16 8 -27 25 -27 45c0 28 23 50 50 50c13 0 24 -5 33 -13c33 23 79 39 129 41h7l29 98l86 -17c7 16 22 28 41 28c25 0 44 -20 44 -45s-19 -45 -44 -45c-24 0 -45 19 -45 44l-69 14l-24 -77c50 -2 96 -18 129 -41c9 8 21 13 34 13c27 0 49 -22 49 -50zM375 366
c-15 0 -27 -12 -27 -27s12 -27 27 -27s27 12 27 27s-12 27 -27 27zM18 197c0 -11 6 -21 14 -27c7 19 20 38 37 53c-5 4 -12 6 -19 6c-18 0 -32 -14 -32 -32zM355 55c32 22 50 52 50 83v9c-1 6 -3 12 -5 18c-6 16 -15 30 -30 43c-4 4 -10 8 -15 12v0c-35 24 -80 37 -130 37
s-96 -13 -131 -37v0c-5 -4 -11 -8 -15 -12c-15 -13 -24 -27 -30 -43c-2 -6 -4 -12 -5 -18v-9c0 -31 18 -61 50 -83c35 -24 81 -37 131 -37s95 13 130 37zM417 170c8 6 14 16 14 27c0 18 -13 32 -31 32c-7 0 -15 -2 -20 -6c17 -15 30 -34 37 -53zM289 90l13 -12
c-1 -1 -29 -30 -77 -30s-77 29 -78 30l13 12s24 -24 65 -24c40 0 64 24 64 24z" />
    <glyph glyph-name="ion-ios-star-outline" unicode="&#xf4b2;" 
d="M448 241l-140 -98l54 -159l-138 99l-138 -99l54 159l-140 98h171l53 159l53 -159h171zM331 27l-43 122l108 75h-131l-41 123l-41 -123h-131l108 -75l-43 -122l107 76z" />
    <glyph glyph-name="ion-android-bicycle" unicode="&#xf369;" 
d="M299 317c-19 0 -34 14 -34 33s15 34 34 34s33 -15 33 -34s-14 -33 -33 -33zM355 187c51 0 93 -43 93 -94s-42 -93 -93 -93s-94 42 -94 93s43 94 94 94zM355 28c36 0 65 29 65 65s-29 66 -65 66s-66 -30 -66 -66s30 -65 66 -65zM274 224l-30 45l-43 -45l39 -32v-112h-32
v86l-61 38c-9 6 -19 15 -19 27c0 8 3 17 9 23l72 69c6 6 14 9 22 9c11 0 22 -7 28 -16l34 -60h59v-32h-78zM93 187c51 0 94 -43 94 -94s-43 -93 -94 -93s-93 42 -93 93s42 94 93 94zM93 28c36 0 66 29 66 65s-30 66 -66 66s-65 -30 -65 -66s29 -65 65 -65z" />
    <glyph glyph-name="ion-android-drafts" unicode="&#xf384;" 
d="M448 246v-203c0 -23 -20 -43 -43 -43h-362c-23 0 -43 20 -43 43v203c0 15 8 30 20 37l204 101l204 -101c13 -7 20 -22 20 -37zM224 144l171 112l-171 85l-171 -85z" />
    <glyph glyph-name="ion-android-arrow-dropleft" unicode="&#xf361;" horiz-adv-x="128" 
d="M128 320v-256l-128 128z" />
    <glyph glyph-name="ion-ios-drag" unicode="&#xf421;" horiz-adv-x="352" 
d="M0 128v16h352v-16h-352zM0 184v16h352v-16h-352zM0 240v16h352v-16h-352z" />
    <glyph glyph-name="ion-at" unicode="&#xf10f;" 
d="M422 41c-24 -25 -52 -43 -85 -55s-69 -18 -105 -18c-35 0 -66 6 -95 17s-53 26 -73 46s-36 43 -47 71s-17 58 -17 90s6 62 18 89s29 51 50 71s46 35 74 47c28 11 58 17 90 17c28 0 55 -4 81 -12s49 -20 69 -36s36 -36 48 -60s18 -53 18 -85c0 -24 -3 -46 -10 -64
s-16 -34 -27 -46s-24 -22 -38 -28s-29 -10 -45 -10s-29 4 -39 12s-15 17 -15 29h-3c-6 -10 -15 -19 -28 -28s-28 -13 -46 -13c-28 0 -49 9 -64 27s-23 42 -23 71c0 17 3 34 9 50s14 31 24 44s23 23 38 31s31 12 49 12c15 0 27 -4 38 -10c10 -6 18 -15 21 -24h1l5 24h54
l-24 -113c-1 -6 -2 -12 -3 -19s-2 -13 -2 -19c0 -7 1 -13 4 -18s7 -7 15 -7c16 0 29 9 39 26s16 40 16 68c0 24 -4 45 -12 64s-20 34 -34 47s-32 23 -52 29s-41 9 -65 9c-26 0 -49 -4 -70 -13s-39 -22 -54 -38s-27 -34 -35 -56c-8 -21 -13 -44 -13 -69c0 -26 4 -51 13 -72
s21 -39 37 -54s35 -27 57 -35s46 -12 72 -12c33 0 61 6 85 16s45 25 65 43zM231 260c-10 0 -18 -2 -25 -8s-14 -13 -19 -22s-8 -18 -11 -28s-4 -20 -4 -30c0 -5 0 -10 1 -16c1 -5 3 -10 6 -15s7 -8 12 -11s11 -5 19 -5c11 0 20 3 28 8s14 13 19 21s9 16 11 26s3 19 3 27
c0 6 0 13 -1 19s-4 12 -7 17s-7 9 -12 12s-12 5 -20 5z" />
    <glyph glyph-name="ion-android-car" unicode="&#xf36f;" horiz-adv-x="384" 
d="M339 331l45 -118v-160c0 -12 -9 -21 -21 -21h-22c-12 0 -21 9 -21 21v11h-256v-11c0 -12 -9 -21 -21 -21h-22c-12 0 -21 9 -21 21v160l45 118c4 13 16 21 30 21h234c14 0 26 -8 30 -21zM75 128c18 0 32 14 32 32s-14 32 -32 32s-32 -14 -32 -32s14 -32 32 -32zM309 128
c18 0 32 14 32 32s-14 32 -32 32s-32 -14 -32 -32s14 -32 32 -32zM43 235h298l-32 85h-234z" />
    <glyph glyph-name="ion-happy" unicode="&#xf31c;" 
d="M224 416c124 0 224 -100 224 -224s-100 -224 -224 -224s-224 100 -224 224s100 224 224 224zM71 195c3 -2 6 -3 10 -3c5 0 11 2 14 6s7 10 17 10s14 -6 17 -10s9 -6 14 -6c4 0 7 1 10 3c8 5 9 15 4 22c-10 14 -24 23 -45 23s-33 -9 -44 -23c-6 -7 -5 -16 3 -22zM362 137
c4 8 1 17 -7 21c-2 1 -4 2 -7 2c-6 0 -11 -3 -14 -8c-18 -35 -61 -56 -110 -56c-50 0 -94 21 -110 55c-3 6 -8 9 -14 9c-2 0 -5 0 -7 -1c-8 -4 -12 -13 -8 -21c21 -45 77 -74 139 -74c60 0 114 27 138 73zM377 195c8 5 9 15 4 22c-10 14 -24 23 -45 23s-33 -9 -44 -23
c-6 -7 -5 -16 3 -22c3 -2 6 -3 10 -3c5 0 11 2 14 6s7 10 17 10s14 -6 17 -10s9 -6 14 -6c4 0 7 1 10 3z" />
    <glyph glyph-name="ion-ios-search" unicode="&#xf4a5;" horiz-adv-x="384" 
d="M384 23l-23 -23l-113 113c-26 -21 -60 -33 -96 -33c-84 0 -152 68 -152 152s68 152 152 152s152 -68 152 -152c0 -36 -12 -69 -33 -95zM56 135c26 -26 60 -39 96 -39s70 14 96 40s40 60 40 96s-14 70 -40 96s-60 40 -96 40s-70 -14 -96 -40s-40 -60 -40 -96
s14 -71 40 -97z" />
    <glyph glyph-name="ion-ios-bookmarks-outline" unicode="&#xf3e9;" horiz-adv-x="418" 
d="M385 384c19 0 33 -13 33 -32v-286c0 -19 -14 -34 -33 -34h-143s-25 -4 -25 -19v-13h-8h-8v13c0 15 -11 19 -25 19h-143c-19 0 -33 15 -33 34v286c0 19 14 32 33 32h150c10 0 20 -5 26 -12v0v0c6 7 16 12 26 12h150zM201 37v309c0 9 -12 22 -25 22h-143
c-9 0 -16 -7 -16 -16v-286c0 -9 7 -18 16 -18h144c10 0 19 -3 24 -11zM273 368v-100l23 14l9 6l9 -6l23 -14v100h-64zM401 66v286c0 9 -7 16 -16 16h-32v-131l-48 32l-48 -32v131h-15c-13 0 -25 -13 -25 -22v-309c5 9 14 11 24 11h144c9 0 16 9 16 18z" />
    <glyph glyph-name="ion-ios-paperplane-outline" unicode="&#xf473;" horiz-adv-x="320" 
d="M0 198l320 154l-146 -320l-57 115zM132 152l41 -83l115 249zM286 320l-248 -121l83 -36z" />
    <glyph glyph-name="ion-android-share-alt" unicode="&#xf3ac;" horiz-adv-x="384" 
d="M320 104c34 0 62 -28 62 -62s-28 -62 -62 -62s-62 28 -62 62c0 5 1 10 2 14l-152 88c-12 -11 -27 -17 -44 -17c-35 0 -64 29 -64 64s28 64 63 64c17 0 32 -6 44 -17l151 87c-1 5 -2 10 -2 15c0 35 29 64 64 64s64 -29 64 -64s-29 -64 -64 -64c-17 0 -32 6 -44 17
l-151 -87c1 -5 2 -10 2 -15s-1 -10 -2 -15l153 -88c11 11 26 16 42 16z" />
    <glyph glyph-name="ion-ios-browsers" unicode="&#xf3f0;" horiz-adv-x="384" 
d="M0 304h304v-304h-304v304zM80 384h304v-304h-64v240h-240v64z" />
    <glyph glyph-name="ion-social-javascript" unicode="&#xf4e5;" 
d="M176 360v0v-213c0 -97 -49 -131 -121 -131c-18 0 -40 3 -55 8l8 62c10 -4 24 -6 39 -6c31 0 49 15 49 68v212h80zM350 368v0c38 0 65 -7 85 -16l-19 -64c-13 7 -35 17 -67 17s-48 -16 -48 -33c0 -22 19 -31 62 -48c58 -22 85 -53 85 -102c0 -57 -42 -106 -133 -106
c-38 0 -72 10 -91 21l15 63v0c20 -11 49 -21 81 -21c34 0 52 15 52 38c0 21 -15 33 -55 47c-55 20 -93 52 -93 102c0 58 49 102 126 102z" />
    <glyph glyph-name="ion-chevron-down" unicode="&#xf123;" 
d="M224 150v0v0l174 167c4 4 12 4 16 0l31 -30c4 -4 4 -12 0 -16l-213 -204c-2 -2 -5 -3 -8 -3s-6 1 -8 3l-213 204c-4 4 -4 12 0 16l31 30c4 4 12 4 16 0z" />
    <glyph glyph-name="ion-android-volume-mute" unicode="&#xf3b8;" horiz-adv-x="192" 
d="M0 256h85l107 112v-352l-107 112h-85v128z" />
    <glyph glyph-name="ion-android-exit" unicode="&#xf385;" horiz-adv-x="384" 
d="M151 115l55 56h-206v42h207l-56 56l30 30l107 -107l-107 -107zM341 384c23 0 43 -20 43 -43v-298c0 -23 -20 -43 -43 -43h-298c-23 0 -43 20 -43 43v85h43v-85h298v298h-298v-85h-43v85c0 23 20 43 43 43h298z" />
    <glyph glyph-name="ion-ios-mic-off" unicode="&#xf45f;" horiz-adv-x="280" 
d="M266 -32l-258 440l14 8l258 -440zM128 95c-44 0 -79 37 -79 83v118l113 -193c-10 -5 -22 -8 -34 -8zM207 178c0 -10 -2 -19 -5 -28l-136 234c14 20 37 32 62 32c44 0 79 -38 79 -84v-154zM256 176c0 -28 -9 -54 -24 -75l-10 17c11 17 17 36 17 58v80h17v-80zM139 49v0
v-63h69v-18h-161v18h73v63c-67 5 -120 60 -120 127v80h19v-80c0 -60 50 -109 110 -109c17 0 34 4 48 11l9 -16c-14 -7 -30 -12 -47 -13z" />
    <glyph glyph-name="ion-social-googleplus-outline" unicode="&#xf234;" 
d="M192 366c12 -10 36 -30 36 -68c0 -37 -21 -55 -43 -72c-7 -7 -15 -13 -15 -24s8 -18 14 -22l18 -14c23 -19 43 -36 43 -71c0 -47 -47 -95 -135 -95c-74 0 -110 35 -110 72c0 18 10 44 40 62c32 19 75 21 98 23c-7 9 -16 18 -16 34c0 9 3 14 5 20c-6 0 -11 -1 -16 -1
c-54 0 -85 40 -85 79c0 23 10 48 32 67c29 24 64 28 92 28h106l-33 -18h-31zM155 142c-4 0 -7 1 -12 1s-32 -1 -54 -8c-11 -4 -44 -16 -44 -52s36 -62 91 -62c49 0 75 24 75 55c0 26 -17 39 -56 66zM170 238c12 12 13 28 13 37c0 36 -22 92 -65 92c-13 0 -28 -6 -36 -16
c-9 -11 -11 -24 -11 -37c0 -34 20 -90 64 -90c13 0 27 6 35 14zM448 306v-18h-78v-81h-18v81h-80v18h80v78h18v-78h78z" />
    <glyph glyph-name="ion-eject" unicode="&#xf131;" horiz-adv-x="320" 
d="M303 128h-286v0c-10 0 -17 7 -17 16c0 3 1 5 3 8l138 191c5 5 11 9 19 9s14 -4 19 -9l138 -190c2 -3 3 -6 3 -9c0 -9 -7 -16 -17 -16v0zM308 96c7 0 12 -5 12 -12v-40c0 -7 -5 -12 -12 -12h-296c-7 0 -12 5 -12 12v40c0 7 5 12 12 12h296z" />
    <glyph glyph-name="ion-quote" unicode="&#xf347;" horiz-adv-x="384" 
d="M128 384c-41 0 -73 -11 -95 -33s-33 -54 -33 -95v-256h160v256h-96c0 23 5 39 15 49s26 15 49 15zM352 384c-41 0 -73 -11 -95 -33s-33 -54 -33 -95v-256h160v256h-96c0 23 5 39 15 49s26 15 49 15z" />
    <glyph glyph-name="ion-ios-location-outline" unicode="&#xf455;" horiz-adv-x="288" 
d="M144 400c-34 0 -67 -13 -91 -37s-37 -57 -37 -91c0 -43 24 -107 70 -186c22 -38 44 -72 58 -91c14 19 36 53 58 91c46 79 70 143 70 186c0 34 -13 67 -37 91s-57 37 -91 37zM144 416v0c80 0 144 -64 144 -144c0 -112 -144 -304 -144 -304s-144 192 -144 304
c0 80 64 144 144 144zM144 336c35 0 64 -29 64 -64s-29 -64 -64 -64s-64 29 -64 64s29 64 64 64zM144 225c26 0 47 21 47 47s-21 47 -47 47s-47 -21 -47 -47s21 -47 47 -47z" />
    <glyph glyph-name="ion-pinpoint" unicode="&#xf2a7;" 
d="M224 416c124 0 224 -100 224 -224s-100 -224 -224 -224s-224 100 -224 224s100 224 224 224zM360 56c32 32 51 75 55 120l-63 8v16l63 8c-4 45 -23 88 -55 120s-75 51 -120 55l-8 -63h-16l-8 63c-45 -4 -88 -23 -120 -55s-51 -75 -55 -120l63 -8v-16l-63 -8
c4 -45 23 -88 55 -120s75 -51 120 -55l8 63h16l8 -63c45 4 88 23 120 55z" />
    <glyph glyph-name="ion-ios-pricetag-outline" unicode="&#xf48c;" horiz-adv-x="416" 
d="M416 416v-160l-256 -288l-160 160l256 288h160zM400 264v136h-136l-240 -272l136 -136zM320 288c-18 0 -32 14 -32 32s14 32 32 32s32 -14 32 -32s-14 -32 -32 -32zM320 336c-9 0 -16 -7 -16 -16s7 -16 16 -16s16 7 16 16s-7 16 -16 16z" />
    <glyph glyph-name="ion-ios-compose" unicode="&#xf418;" horiz-adv-x="384" 
d="M192 128l128 128v-240h-320v304h256l-128 -128v-64h64zM324 356l32 -32l-180 -180h-32v32zM380 368c2 -3 4 -6 4 -10s-2 -7 -4 -10l-12 -12l-21 21l-11 11v0l12 12c3 2 6 4 10 4s7 -2 10 -4z" />
    <glyph glyph-name="ion-star" unicode="&#xf24e;" 
d="M448 248l-139 -104l55 -176l-140 112l-140 -112l55 176l-139 104h172l52 168l53 -168h171z" />
    <glyph glyph-name="ion-android-add-circle" unicode="&#xf359;" horiz-adv-x="416" 
d="M208 400c115 0 208 -93 208 -208s-93 -208 -208 -208s-208 93 -208 208s93 208 208 208zM315 171v42h-86v86h-42v-86h-86v-42h86v-86h42v86h86z" />
    <glyph glyph-name="ion-ios-color-filter" unicode="&#xf414;" horiz-adv-x="384" 
d="M302 236c47 -13 82 -57 82 -108c0 -62 -50 -112 -112 -112c-31 0 -60 13 -80 34c-20 -21 -49 -34 -80 -34c-62 0 -112 50 -112 112c0 51 35 95 82 108c-1 7 -2 13 -2 20c0 62 50 112 112 112s112 -50 112 -112c0 -7 -1 -13 -2 -20zM192 53l1 -2c3 3 6 7 9 11
c14 19 22 41 22 66c0 7 -1 13 -2 20c36 10 64 37 76 72c2 5 3 10 4 15c-1 0 -2 1 -3 1v1c-4 1 -8 1 -12 2c-5 1 -10 1 -15 1c-31 0 -60 -13 -80 -34c-20 21 -49 34 -80 34c-5 0 -10 0 -15 -1c-4 -1 -8 -1 -12 -2v-1c-1 0 -2 -1 -3 -1c1 -5 2 -10 4 -15c12 -35 40 -62 76 -72
c-1 -7 -2 -13 -2 -20c0 -25 8 -47 22 -66c3 -4 6 -8 9 -11zM207 145c1 -5 1 -11 1 -17c0 -20 -6 -38 -16 -53c-10 15 -16 33 -16 53c0 6 0 12 1 17c5 -1 10 -1 15 -1s10 0 15 1zM282 223c-10 -29 -34 -51 -64 -59c-4 11 -9 21 -16 30c18 18 43 30 70 30c3 0 7 -1 10 -1z
M202 161c-3 0 -7 -1 -10 -1s-7 1 -10 1c3 7 6 14 10 20c4 -6 7 -13 10 -20zM112 224c27 0 52 -12 70 -30c-7 -9 -12 -19 -16 -30c-30 8 -54 30 -64 59c3 0 7 1 10 1z" />
    <glyph glyph-name="ion-social-angular-outline" unicode="&#xf4d8;" 
d="M224 384l-188 -69l39 -230l149 -80l149 80l39 230zM224 416v0l224 -80l-46 -272l-178 -96l-178 96l-46 272zM312 96l-27 56h-122l-27 -56h-40l128 280l128 -280h-40zM182 192h84l-42 89z" />
    <glyph glyph-name="ion-android-hangout" unicode="&#xf38d;" horiz-adv-x="352" 
d="M176 400c97 0 176 -77 176 -172c0 -91 -76 -196 -176 -244v71c-97 0 -176 78 -176 173s79 172 176 172zM166 217v61h-62v-61h31l-21 -40h31zM248 217v61h-62v-61h31l-20 -40h31z" />
    <glyph glyph-name="ion-transfer-receiver" unicode="&#xf138;" horiz-adv-x="460" 
d="M283 24c6 0 11 6 11 12s-5 11 -11 11h-179c-6 0 -11 -5 -11 -11s5 -12 11 -12h179zM142 128c-4 -5 -4 -11 0 -15l44 -44c2 -2 4 -4 8 -4c3 0 5 2 7 4l44 44c4 4 4 10 0 15c-5 4 -12 4 -17 0l-23 -24v95c0 6 -5 11 -11 11s-12 -5 -12 -11v-95l-23 24c-5 4 -12 4 -17 0z
M392 49c14 -1 27 0 43 0v-78c0 -10 -8 -15 -17 -17h-11h-380c-22 0 -27 5 -27 27v288c0 38 6 43 44 43h47c-9 -9 -16 -16 -28 -15c-9 1 -19 1 -28 0c-3 -1 -6 -4 -9 -7c3 -2 5 -6 9 -7c7 -1 16 0 23 0h348c25 0 29 -4 29 -28v-89h-37c-32 -1 -53 -19 -59 -49
c-6 -33 19 -66 53 -68zM91 290c-1 1 -1 2 -1 3c62 45 125 91 189 137c19 -24 37 -48 56 -73c-5 -2 -8 -4 -12 -6c-45 -18 -91 -34 -136 -52c-15 -6 -31 -10 -48 -9c-16 1 -32 0 -48 0zM396 86c12 0 23 11 22 22c0 12 -10 21 -23 21c-11 -1 -21 -10 -21 -22s10 -21 22 -21z
M395 152c23 -1 47 -3 62 22c1 -2 2 -3 3 -4v-78c0 -3 0 -5 -2 -6c-13 -10 -23 -27 -43 -23c-6 2 -14 0 -21 1c-22 1 -41 20 -42 42s16 41 37 45c2 0 4 1 6 1zM208 291v3c52 19 104 37 157 56c7 -20 15 -39 22 -59h-179zM409 297c-9 -1 -13 4 -14 15c15 0 28 1 42 0
c11 -1 23 -12 23 -24c0 -32 1 -63 0 -95c0 -5 -7 -9 -10 -13c-2 0 -2 1 -3 1c-1 4 -1 7 -1 11v86c0 15 -5 19 -21 19c-6 0 -10 1 -16 0zM457 70l3 -2c0 -25 1 -50 0 -74c-1 -6 -7 -10 -10 -15c-2 1 -3 2 -4 2c0 26 -1 52 0 78c1 4 7 7 11 11z" />
    <glyph glyph-name="ion-android-pin" unicode="&#xf3a3;" horiz-adv-x="320" 
d="M160 416c88 0 160 -71 160 -157c0 -118 -160 -291 -160 -291s-160 173 -160 291c0 86 72 157 160 157zM160 203c32 0 57 25 57 56s-25 56 -57 56s-57 -25 -57 -56s25 -56 57 -56z" />
    <glyph glyph-name="ion-ios-flask" unicode="&#xf431;" horiz-adv-x="384" 
d="M327 65v0c5 -8 8 -18 8 -24c0 -8 -3 -14 -7 -18c-5 -4 -13 -7 -23 -7h-226c-11 0 -20 2 -24 6c-1 1 -6 5 -6 18c0 6 4 17 9 25v0v0l67 111h135l67 -111v0zM373 78c8 -16 11 -32 11 -46c-1 -36 -27 -64 -63 -64h-256c-36 0 -64 27 -65 64c0 14 4 30 12 46l116 195v127h-16
v16h160v-16h-16v-127zM144 384v-16h48v16h-48zM144 336v-16h32v16h-32zM144 288v-16h48v16h-48zM127 240l-9 -16h58v16h-49zM351 40c0 9 -3 22 -10 33l-72 119h-154l-71 -119c-7 -11 -11 -24 -11 -33c0 -28 16 -40 46 -40h226c30 0 45 16 46 40z" />
    <glyph glyph-name="ion-ios-pint-outline" unicode="&#xf485;" horiz-adv-x="224" 
d="M224 278c0 -98 -32 -101 -32 -181c0 -40 16 -71 16 -99c0 -27 -9 -30 -32 -30h-128c-23 0 -32 2 -32 29c0 28 16 60 16 100c0 80 -32 83 -32 181c0 21 1 89 19 125c4 9 13 13 32 13h122c19 0 28 -4 32 -13c18 -36 19 -104 19 -125zM34 396c-8 -16 -14 -43 -17 -76h190
c-3 33 -9 60 -17 76c-1 2 -1 1 -2 2c-2 1 -6 2 -15 2h-122c-9 0 -13 -1 -15 -2c-1 -1 -1 0 -2 -2zM191 -15c0 1 1 5 1 13c0 11 -4 23 -7 37c-4 18 -9 39 -9 62c0 41 8 64 16 86c8 23 16 46 16 95c0 9 -1 18 -1 26h-190c0 -8 -1 -17 -1 -26c0 -49 8 -72 16 -95
c8 -22 16 -45 16 -86c0 -23 -5 -44 -9 -62c-3 -14 -7 -26 -7 -37c0 -8 1 -12 1 -13c2 -1 7 -1 15 -1h128c8 0 13 0 15 1z" />
    <glyph glyph-name="ion-ios-telephone-outline" unicode="&#xf4b8;" horiz-adv-x="352" 
d="M336 112c16 -16 26 -35 0 -66c-25 -30 -42 -30 -64 -30c-24 0 -58 14 -93 40c-32 23 -46 34 -78 67c-34 35 -55 64 -79 107c-27 50 -24 74 -18 92c4 12 14 24 28 33l1 1c6 4 18 12 32 12c13 0 24 -6 34 -18l1 -1c11 -14 24 -31 32 -47c10 -21 10 -38 -1 -53
c-9 -12 -12 -19 -12 -23s5 -9 13 -18l1 -1c16 -18 20 -23 26 -29c1 -1 3 -2 4 -3l2 -2c7 -7 11 -12 29 -28l1 -1c7 -6 9 -8 12 -8c5 0 16 7 29 15c4 3 11 5 17 5c27 0 68 -29 83 -44zM324 57c19 22 13 31 1 43c-13 14 -50 39 -72 39c-3 0 -6 -1 -8 -2
c-19 -12 -28 -18 -37 -18s-15 6 -23 13h-1c-19 16 -23 21 -30 29l-2 2c-1 1 -3 2 -4 3c-6 6 -11 12 -27 30v1c-10 11 -17 18 -18 28s5 20 16 34c15 20 -5 48 -31 79l-1 1c-7 8 -14 12 -22 12c-10 0 -18 -6 -23 -9c-1 0 -2 -1 -2 -1c-11 -7 -18 -16 -21 -24
c-5 -16 -7 -35 17 -79c23 -42 43 -70 76 -104c31 -32 45 -42 76 -64c32 -23 64 -38 84 -38c21 0 32 1 52 25z" />
    <glyph glyph-name="ion-ios-lightbulb" unicode="&#xf452;" horiz-adv-x="288" 
d="M288 275c0 -31 -13 -59 -30 -83v0c-11 -15 -22 -28 -32 -45c-22 -38 -18 -73 -18 -82v-1h-32v128l32 64h-16l-32 -64v-128h-32v128l-31 64h-17l32 -64v-128h-32v1c0 7 3 44 -19 82c-10 17 -20 30 -31 45v0c-17 24 -30 52 -30 83c0 78 66 141 144 141s144 -63 144 -141z
M112 -32v16h64v-16h-64zM96 0v16h96v-16h-96zM96 32v16h96v-16h-96z" />
    <glyph glyph-name="ion-ios-cloud-download-outline" unicode="&#xf407;" 
d="M161 67l55 -54v242h16v-242l55 54l12 -12l-75 -73l-74 73zM367 284c45 0 81 -37 81 -82s-37 -82 -82 -82v0h-101v16h97h4c37 0 66 30 66 66s-29 67 -66 67h-15v20c0 55 -46 97 -101 97c-38 0 -73 -22 -90 -56l-6 -14l-14 7c-6 3 -13 5 -20 5c-22 0 -40 -18 -44 -39l-1 -9
l-9 -3c-30 -10 -50 -36 -50 -67c0 -40 33 -74 74 -74h91v-16h-91c-50 0 -90 40 -90 89c0 39 26 71 61 83c5 28 29 51 59 51c10 0 18 -2 26 -6c19 39 59 65 105 65c64 0 117 -51 117 -115c0 -1 -1 -2 -1 -3z" />
    <glyph glyph-name="ion-ios-bolt-outline" unicode="&#xf3e5;" horiz-adv-x="226" 
d="M131 316l-100 -140h65h19l-3 -19l-17 -89l100 140h-65h-19l3 19zM160 384v0l-30 -160h96l-160 -224l30 160h-96z" />
    <glyph glyph-name="ion-android-plane" unicode="&#xf3a4;" horiz-adv-x="384" 
d="M384 112l-160 48v-114l48 -31v-31l-80 16l-80 -16v31l48 31v114l-160 -48v40l160 104v113c0 18 15 31 32 31s32 -13 32 -31v-113l160 -104v-40z" />
    <glyph glyph-name="ion-android-favorite-outline" unicode="&#xf387;" horiz-adv-x="416" 
d="M302 384c64 0 114 -50 114 -115c0 -80 -71 -144 -178 -242l-30 -27l-30 27c-107 98 -178 162 -178 242c0 65 50 115 114 115c36 0 71 -17 94 -44c23 27 58 44 94 44zM221 55c50 46 94 86 123 122c28 35 40 63 40 92c0 23 -9 44 -24 59s-35 24 -58 24
c-26 0 -53 -13 -70 -33l-24 -29l-24 29c-17 20 -44 33 -70 33c-23 0 -43 -9 -58 -24s-24 -36 -24 -59c0 -29 12 -57 40 -92c29 -36 73 -76 123 -122l4 -4l9 -8l9 8z" />
    <glyph glyph-name="ion-ios-game-controller-a-outline" unicode="&#xf438;" 
d="M163 208c3 0 5 -2 5 -5v-22c0 -3 -2 -5 -5 -5h-35v-35c0 -3 -3 -5 -6 -5h-21c-3 0 -5 2 -5 5v35h-35c-3 0 -5 3 -5 6v21c0 3 2 5 5 5h35v35c0 3 2 5 5 5h22c3 0 5 -2 5 -5v-35h35zM330 169c11 0 20 -8 20 -19s-9 -19 -20 -19s-19 8 -19 19s8 19 19 19zM288 211
c11 0 19 -8 19 -19s-8 -19 -19 -19s-20 8 -20 19s9 19 20 19zM373 211c11 0 19 -8 19 -19s-8 -19 -19 -19s-20 8 -20 19s9 19 20 19zM330 253c11 0 20 -8 20 -19s-9 -20 -20 -20s-19 9 -19 20s8 19 19 19zM337 286h-226c-26 0 -49 -9 -67 -26s-28 -41 -28 -67s10 -51 28 -68
s41 -27 67 -27h226c26 0 49 10 67 27s28 42 28 68s-10 50 -28 67s-41 26 -67 26zM337 302v0c61 0 111 -45 111 -109s-50 -111 -111 -111h-226c-61 0 -111 47 -111 111s50 109 111 109h226z" />
    <glyph glyph-name="ion-backspace" unicode="&#xf3bf;" horiz-adv-x="512" 
d="M499 354c9 -9 13 -20 13 -33v-256c0 -27 -20 -49 -46 -49h-298c-13 0 -24 3 -34 9c-9 5 -16 11 -23 20v0l-1 1l-110 146l110 148c14 19 34 28 58 28h298c13 0 24 -5 33 -14zM413 116l-76 76l77 76c3 3 3 9 0 12l-22 22c-2 2 -4 2 -6 2s-4 0 -6 -2l-76 -76l-76 76
c-2 2 -4 2 -6 2s-4 0 -6 -2l-22 -22c-3 -3 -3 -9 0 -12l77 -76l-76 -76c-2 -2 -3 -4 -3 -6s1 -4 3 -6l21 -22c2 -2 4 -2 6 -2s4 0 6 2l76 77l76 -77c2 -2 4 -2 6 -2s4 0 6 2l21 22c2 2 3 4 3 6s-1 4 -3 6z" />
    <glyph glyph-name="ion-ios-upload-outline" unicode="&#xf4ca;" horiz-adv-x="320" 
d="M192 304h128v-304h-320v304h128v-16h-112v-272h288v272h-112v16zM97 330l-11 12l74 74l74 -74l-11 -12l-55 55v-243h-16v243z" />
    <glyph glyph-name="ion-speedometer" unicode="&#xf2b3;" 
d="M312 192l8 -8l-64 -84v-4c0 -18 -14 -32 -32 -32s-32 14 -32 32s14 32 32 32h4zM224 352c124 0 224 -100 224 -224c0 -34 -8 -67 -22 -96h-36c15 27 25 57 26 88h-32v16h32c-1 29 -9 56 -22 81l-27 -15l-8 13l27 16c-8 12 -16 23 -26 33s-21 18 -33 26l-16 -27l-14 8
l16 27c-25 13 -52 21 -81 22v-32h-16v32c-29 -1 -56 -9 -81 -22l16 -27l-14 -8l-16 27c-12 -8 -23 -16 -33 -26s-19 -21 -26 -33l28 -16l-8 -13l-28 15c-13 -25 -21 -52 -22 -81h32v-16h-32c1 -31 11 -61 26 -88h-36c-14 29 -22 62 -22 96c0 124 100 224 224 224z" />
    <glyph glyph-name="ion-ios-clock" unicode="&#xf403;" horiz-adv-x="416" 
d="M208 400c115 0 208 -93 208 -208s-93 -208 -208 -208s-208 93 -208 208s93 208 208 208zM225 175v145h-17v-128h-96v-17h113z" />
    <glyph glyph-name="ion-social-rss" unicode="&#xf23d;" horiz-adv-x="384" 
d="M56 112c31 0 56 -25 56 -56s-25 -56 -56 -56s-56 25 -56 56s25 56 56 56zM0 256c140 0 256 -116 256 -256h-80c0 48 -14 94 -48 128s-80 48 -128 48v80zM0 384c212 0 384 -172 384 -384h-80c0 171 -133 304 -304 304v80z" />
    <glyph glyph-name="ion-ios-refresh-empty" unicode="&#xf49a;" horiz-adv-x="256" 
d="M128 64c-71 0 -128 57 -128 128s57 128 128 128v44l96 -64l-96 -56v56c-60 0 -108 -48 -108 -108s48 -108 108 -108s108 48 108 108h20c0 -71 -57 -128 -128 -128z" />
    <glyph glyph-name="ion-ios-chatboxes-outline" unicode="&#xf3f9;" horiz-adv-x="416" 
d="M16 384v-192h96v-16h-112v224h288v-112h-16v96h-256zM128 272h288v-224h-48v-64h-13l-64 64h-163v224zM400 64v192h-256v-192h153l55 -55v55h48z" />
    <glyph glyph-name="ion-android-checkbox-blank" unicode="&#xf371;" horiz-adv-x="384" 
d="M341 384c23 0 43 -20 43 -43v-298c0 -23 -20 -43 -43 -43h-298c-23 0 -43 20 -43 43v298c0 23 20 43 43 43h298z" />
    <glyph glyph-name="ion-ios-body" unicode="&#xf3e4;" horiz-adv-x="384" 
d="M144 368c0 27 21 48 48 48s48 -21 48 -48s-21 -48 -48 -48s-48 21 -48 48zM360 304c13 0 24 -11 24 -24s-11 -24 -24 -24h-98c-6 -1 -14 -4 -18 -14c-5 -12 -2 -34 1 -52l4 -21v-1v0l30 -172c2 -13 -6 -26 -19 -28s-26 7 -28 20l-21 120v-1s-6 33 -18 33h-2
c-12 0 -18 -33 -18 -33v1l-21 -120c-2 -13 -15 -22 -28 -20s-21 15 -19 28l30 172v0v1l4 21c3 18 6 40 1 52c-4 10 -12 13 -18 14h-98c-13 0 -24 11 -24 24s11 24 24 24h336z" />
    <glyph glyph-name="ion-arrow-return-right" unicode="&#xf266;" horiz-adv-x="384" 
d="M384 256l-128 -96v64h-192v-128h248c4 0 8 -4 8 -8v-48c0 -4 -4 -8 -8 -8h-304c-4 0 -8 4 -8 8v240c0 4 4 8 8 8h248v64z" />
    <glyph glyph-name="ion-ios-alarm" unicode="&#xf3c8;" horiz-adv-x="404" 
d="M385 256l-55 52l-9 -9c35 -32 57 -79 57 -130c0 -44 -16 -83 -43 -114l37 -45l-13 -10l-35 43c-32 -30 -75 -49 -122 -49v0v0c-47 0 -90 19 -122 49l-35 -43l-12 10l36 45c-27 31 -43 70 -43 114c0 51 22 98 57 130l-9 9l-54 -52c-12 14 -20 32 -20 52c0 44 35 80 80 82
h5c20 0 39 -7 54 -18l-54 -53l11 -10c26 19 56 32 90 35v0c0 8 8 16 16 16s15 -8 15 -16v0c34 -3 65 -16 91 -35l11 11l-54 52c15 11 34 18 54 18h5c45 -2 80 -38 80 -82c0 -20 -7 -38 -19 -52zM218 144v144h-16v-128h-96v-16h112z" />
    <glyph glyph-name="ion-eye" unicode="&#xf133;" 
d="M224 320c99 0 172 -70 224 -129c-51 -50 -124 -127 -224 -127s-157 60 -224 128c78 79 142 128 224 128zM224 101c49 0 90 41 90 91s-41 91 -90 91s-90 -41 -90 -91s41 -91 90 -91zM224 224c0 -18 14 -32 32 -32c8 0 14 3 20 7v-7c0 -29 -23 -53 -52 -53s-52 24 -52 53
s23 53 52 53h8c-5 -6 -8 -13 -8 -21z" />
    <glyph glyph-name="ion-man" unicode="&#xf202;" horiz-adv-x="168" 
d="M84 341c-21 0 -37 17 -37 38s16 37 37 37s37 -16 37 -37s-16 -38 -37 -38zM121 333c28 0 47 -24 47 -48v-114c0 -22 -32 -22 -32 0v105h-5v-286c0 -28 -41 -31 -43 0v165h-1h-7v-165c-1 -29 -43 -30 -43 0v286h-6v-105c0 -22 -31 -22 -31 0v114c0 24 19 48 47 48h37h37z
" />
    <glyph glyph-name="ion-soup-can" unicode="&#xf4f4;" horiz-adv-x="320" 
d="M0 368c0 35 72 64 160 64s160 -29 160 -64s-72 -64 -160 -64s-160 29 -160 64zM160 8c-88 0 -152 29 -152 64v128c0 -29 41 -53 104 -61c3 -24 23 -43 48 -43s45 19 48 43c63 8 104 32 104 61v-128c0 -35 -64 -64 -152 -64zM160 288c88 0 160 29 160 64c0 0 0 -32 -8 -40
v-96c0 -29 -42 -53 -105 -61c-5 21 -24 37 -47 37s-42 -16 -47 -37c-63 8 -105 32 -105 61v96c-8 7 -8 40 -8 40c0 -35 72 -64 160 -64zM312 56v-24l8 -16c0 -7 -3 -14 -8 -20c-21 -26 -81 -44 -152 -44s-131 18 -152 44c-5 6 -8 13 -8 20l8 16v24c0 -35 64 -64 152 -64
s152 29 152 64z" />
    <glyph glyph-name="ion-playstation" unicode="&#xf30a;" horiz-adv-x="512" 
d="M400 245c0 -11 0 -22 -2 -33c-2 -10 -5 -20 -10 -28c-4 -7 -10 -13 -18 -17c-7 -4 -16 -6 -24 -6c-13 0 -31 4 -42 9v131v2c0 9 -7 17 -15 17h-1c-9 0 -16 -8 -16 -17v-3v-300l-80 26v358s28 -4 75 -18s67 -21 84 -31c8 -5 15 -11 21 -17c7 -7 13 -14 17 -23
c8 -16 10 -33 11 -50zM87 90c-4 -2 -8 -3 -11 -6c-1 -1 -3 -3 -2 -5s4 -4 6 -5c6 -2 13 -3 19 -3c7 0 15 0 22 2c5 1 9 3 14 5c30 10 41 12 41 12v-42c-14 -2 -36 -4 -50 -4c-30 -1 -60 4 -88 13c-9 3 -19 6 -27 12c-4 3 -8 8 -10 13c-2 4 -1 9 1 13s5 8 9 11
c9 6 18 10 28 14c8 4 17 7 26 10c35 12 111 37 111 37v-47s-62 -20 -89 -30zM512 102c0 -5 -2 -9 -5 -13c-6 -7 -14 -11 -22 -15s-17 -8 -26 -11c-54 -19 -171 -59 -171 -59v48s92 30 133 44c6 2 11 4 16 8c2 2 4 3 3 6c-1 2 -4 4 -6 5c-6 2 -13 3 -19 3
c-10 0 -20 -2 -30 -5c-29 -10 -97 -32 -97 -32v49s45 14 67 16c8 1 23 1 31 1c26 0 54 -3 79 -11c5 -2 8 -3 14 -5c9 -3 18 -8 25 -14c4 -4 8 -9 8 -15z" />
    <glyph glyph-name="ion-ios-calculator" unicode="&#xf3f2;" horiz-adv-x="288" 
d="M256 384c18 0 32 -14 32 -32v-320c0 -18 -14 -32 -32 -32h-224c-18 0 -32 14 -32 32v320c0 18 14 32 32 32h224zM248 168h-48v-128h48v128zM248 248h-48v-48h48v48zM168 88h-48v-48h48v48zM168 168h-48v-48h48v48zM168 248h-48v-48h48v48zM88 88h-48v-48h48v48zM88 168
h-48v-48h48v48zM88 248h-48v-48h48v48zM40 296h208v48h-208v-48z" />
    <glyph glyph-name="ion-hammer" unicode="&#xf27b;" horiz-adv-x="320" 
d="M314 416c3 0 6 -3 6 -6v-84c0 -3 -3 -6 -6 -6h-52c-3 0 -6 3 -6 6v14c-6 5 -16 9 -22 7c-7 -2 -23 -13 -30 -25s-6 -28 -6 -66l8 -2c5 -1 7 -6 7 -9v-70c0 -95 11 -201 11 -201c0 -3 -3 -6 -6 -6h-84c-3 0 -6 3 -6 6c0 0 11 106 11 201v70c0 3 3 8 7 9l7 2
c0 43 -5 58 -22 74c-18 16 -41 19 -63 17s-51 -35 -58 -45s-10 2 -10 11c1 16 22 60 72 81s91 22 102 22s27 -1 38 -3s16 -18 26 -18c7 0 14 5 18 9v6c0 3 3 6 6 6h52z" />
    <glyph glyph-name="ion-jet" unicode="&#xf295;" horiz-adv-x="326" 
d="M222 80l-2 -13l53 -58l-18 -27l-74 9l-18 -55l-19 55l-73 -9l-18 27l53 58l-2 13l-104 -35l3 53l114 103s26 173 28 192c5 40 18 55 18 55s13 -15 18 -55c2 -19 28 -192 28 -192l114 -103l3 -53z" />
    <glyph glyph-name="ion-mic-b" unicode="&#xf205;" horiz-adv-x="160" 
d="M80 416c35 0 65 -23 76 -59c6 -18 4 -45 2 -55s-8 -20 -14 -28c-3 -4 -7 -7 -11 -9c-1 0 -1 -1 -2 -1c-3 -1 -6 -2 -10 -3c-12 -3 -25 -5 -39 -5v0h-1h-1v0c-14 0 -29 2 -41 5c-4 1 -7 2 -10 3c-1 0 -1 1 -2 1c-4 2 -8 5 -11 9c-6 8 -12 18 -14 28s-4 37 2 55
c11 36 41 59 76 59zM119 247c6 0 12 -5 12 -12v-2c-5 -67 -18 -241 -19 -252c0 0 -3 -13 -32 -13v0c-29 0 -32 13 -32 13c-1 11 -13 185 -18 252v2c0 7 5 12 11 12h1c1 0 1 -1 2 -1c2 0 4 -1 6 -1c9 -2 21 -2 31 -2s20 0 29 2c2 0 4 1 6 1c1 0 1 1 2 1h1zM90 166v33
c0 6 -4 11 -10 11s-10 -5 -10 -11v-33c0 -6 4 -11 10 -11s10 5 10 11z" />
    <glyph glyph-name="ion-pay" unicode="&#xf501;" horiz-adv-x="434" 
d="M398 88h-7v-11h7v11zM163 -14h-17v-8h17v8zM391 149h7v17h-7v-17zM199 -14h-16v-7h16v7zM219 -14v-7l1 -1h10c7 0 7 1 5 8h-16zM327 -21h17v7h-17v-7zM308 -14h-19c2 -3 3 -7 4 -7c5 -1 10 -1 15 -1v8zM255 -21h17v7h-17v-7zM110 -14c-1 -8 -1 -8 6 -8h5c7 0 7 1 6 8h-17
zM91 -14h-17v-7h17v4v3zM275 231h-17v-7h17v7zM239 231h-18v-7h18v7zM202 231h-17v-7h17v7zM166 231h-17v-7h17v7zM391 41h7v17h-7v-17zM30 60h-7v-17h7v17zM30 97h-7v-18h7v18zM130 231h-18v-7h18v7zM94 231h-18v-7h18v7zM30 133h-7v-17h7v17zM30 169h-7v-17h7v17zM347 231
h-17v-7h17v7zM294 231v-7h11c7 0 7 0 5 7h-16zM58 224c0 1 -1 4 -1 7c-6 -3 -12 -5 -18 -8c2 -3 3 -5 5 -6c5 2 9 4 14 7zM56 -13c-5 3 -9 5 -14 8c-2 -2 -3 -4 -5 -6c6 -4 11 -7 17 -10c1 4 1 6 2 8zM25 6c3 1 5 2 7 2c-1 6 -2 11 -2 16h-8zM382 -13c-2 3 -4 5 -5 6
c-5 -2 -10 -5 -15 -7c1 -2 2 -4 2 -7c7 3 12 5 18 8zM396 204c-3 -1 -6 -2 -7 -3c0 -5 1 -10 2 -15h8zM395 3c1 6 2 12 4 19h-8c-1 -5 -2 -11 -3 -16c2 -1 3 -2 7 -3zM26 207c-1 -7 -3 -13 -4 -19h8c1 5 2 10 3 16c-2 1 -4 1 -7 3zM384 221c-6 3 -11 6 -17 9
c-1 -3 -2 -5 -2 -7c5 -3 9 -5 14 -8c1 1 3 3 5 6zM321 297c13 -4 26 -9 38 -13c11 -4 11 -4 7 -15c-3 -8 -6 -16 -9 -23c5 -2 6 0 7 3c4 10 8 20 11 30c2 6 2 8 -5 10c-8 3 -17 6 -26 9c-6 3 -13 5 -20 8zM167 361c-16 6 -32 11 -48 17c-8 3 -9 2 -12 -6
c-10 -31 -21 -61 -31 -92c-4 -11 -8 -23 -12 -34c4 -2 6 0 7 3l12 36l27 78c2 7 3 7 10 5c6 -2 11 -4 17 -6l27 -9c1 3 2 5 3 8zM395 126h-17c-9 0 -16 -7 -16 -16c-1 -9 6 -17 15 -17c12 -1 23 -1 35 0c9 0 16 8 15 17c0 8 -7 16 -16 16h-16zM89 281c3 -1 6 -1 8 -2
c3 -2 5 -1 7 2c3 5 7 8 11 12c3 -4 5 -7 7 -9c-4 -7 -8 -13 -10 -19c-1 -3 1 -8 3 -10c2 -1 7 0 10 1c3 2 6 6 7 9c4 11 8 23 12 34c1 1 1 2 1 4c-13 3 -27 2 -39 -3c-19 -8 -29 -26 -24 -45c3 -10 3 -10 13 -10h8c-2 4 -4 7 -4 10c1 9 -4 13 -12 15c0 0 -1 0 -1 1
c1 3 2 6 3 10zM277 246c4 -1 6 -1 7 3c12 32 23 64 35 96c2 6 2 7 -4 9c-36 13 -71 27 -107 40c-8 2 -8 2 -11 -6c-16 -43 -32 -85 -47 -128c-2 -5 -4 -9 -5 -14c4 -2 5 0 7 4c15 43 31 86 47 129c3 7 3 7 10 5c32 -12 64 -24 97 -36c7 -2 7 -3 5 -11
c-8 -21 -16 -42 -23 -63c-4 -9 -7 -19 -11 -28zM210 298c-6 -5 -11 -11 -12 -20c0 -7 6 -11 12 -7c4 2 7 5 10 8c4 4 7 9 11 11c11 7 23 3 27 -9c2 -4 2 -9 3 -14c4 -2 9 -4 14 -5c-1 -4 -3 -8 -4 -12c-5 2 -9 4 -13 5c-2 -3 -4 -6 -6 -10h17c3 0 5 1 6 4c7 14 6 27 -2 40
c-13 21 -41 35 -66 31c-14 -2 -26 -8 -34 -21c-11 -19 -2 -40 11 -52c0 -1 2 -2 3 -2h48c2 3 3 5 4 7c4 5 8 10 9 17c0 7 -6 12 -13 8l-9 -9c-3 -4 -6 -8 -10 -10c-11 -7 -24 -3 -28 9c-2 4 -2 9 -3 15c-4 1 -8 3 -12 4c1 4 3 8 4 11l12 -3c1 2 3 4 4 6c8 9 10 9 16 0
c1 0 1 -1 1 -2zM175 381c3 10 7 20 10 29c4 9 9 11 17 8c44 -16 87 -31 130 -47c11 -4 13 -9 9 -20c-3 -8 -6 -17 -9 -25c14 -5 27 -10 41 -15c6 -3 12 -5 17 -7c8 -3 11 -9 8 -16c-5 -15 -11 -29 -16 -43c5 -2 10 -3 15 -6c15 -8 23 -22 23 -39c1 -23 1 -45 0 -68
c0 -2 1 -4 4 -5c13 -8 13 -27 0 -35c-3 -2 -4 -4 -4 -6c1 -25 1 -51 0 -76c0 -23 -16 -42 -39 -45c-9 -1 -18 0 -28 0h-305c-28 0 -48 19 -48 47v117v68c0 24 14 43 36 47c7 1 10 4 12 10c15 46 31 92 47 138c4 11 8 14 20 10c19 -7 39 -14 60 -21zM378 100
c-6 0 -10 3 -11 8c0 4 3 9 7 10c7 2 13 -1 15 -5c3 -7 -2 -13 -11 -13z" />
    <glyph glyph-name="ion-android-laptop" unicode="&#xf390;" horiz-adv-x="512" 
d="M437 32h75c0 -23 -64 -32 -96 -32h-320c-32 0 -96 9 -96 32h75c-23 0 -43 20 -43 43v266c0 23 20 43 43 43h362c23 0 43 -20 43 -43v-266c0 -23 -20 -43 -43 -43zM75 341v-272h362v272h-362zM256 13c12 0 21 10 21 22s-9 21 -21 21s-21 -9 -21 -21s9 -22 21 -22z" />
    <glyph glyph-name="ion-android-contract" unicode="&#xf37d;" horiz-adv-x="384" 
d="M0 77v51h128v-128h-51v77h-77zM77 307v77h51v-128h-128v51h77zM256 0v128h128v-51h-77v-77h-51zM307 307h77v-51h-128v128h51v-77z" />
    <glyph glyph-name="ion-speakerphone" unicode="&#xf2b2;" 
d="M39 266c0 -37 20 -69 50 -86c-1 0 -2 1 -3 1s-4 1 -5 1v0c-35 3 -62 33 -69 69c-6 0 -12 7 -12 16c0 8 5 15 11 16c6 42 40 75 81 75h8c-36 -15 -61 -51 -61 -92zM433 357c10 -25 15 -56 15 -88s-5 -63 -15 -88l-3 -9c-6 -14 -15 -26 -24 -34c-10 -10 -22 -19 -34 -20h-3
c-7 0 -15 2 -22 5c-3 2 -10 5 -10 5c-22 10 -84 28 -115 29c-4 -8 -10 -20 -12 -30c-2 -9 -6 -27 -7 -61c-1 -32 1 -59 3 -82c0 -2 1 -5 1 -7c0 -6 -2 -9 -9 -9h-77c-6 0 -9 3 -9 6v7c2 72 25 140 26 145c2 9 5 17 7 30c2 12 -27 13 -40 24c-29 17 -47 49 -47 86
c0 41 25 77 59 92h42h19c58 3 114 21 163 50c1 1 3 1 4 2v0c8 4 16 6 24 6c13 0 26 -6 37 -16c9 -9 18 -21 24 -35c1 -3 2 -5 3 -8zM410 180c9 22 15 54 15 89s-6 66 -15 88c-8 18 -19 29 -30 29s-21 -11 -29 -29c-9 -22 -15 -53 -15 -88s6 -67 15 -89c8 -19 18 -33 29 -33
s22 15 30 33z" />
    <glyph glyph-name="ion-ios-personadd-outline" unicode="&#xf47f;" horiz-adv-x="320" 
d="M320 295v-14h-25v-25h-14v25h-25v14h25v25h14v-25h25zM106 246v0v0zM267 84c13 -5 53 -20 53 -52h-160h-160c0 32 40 47 53 52s31 6 43 9c7 2 17 5 20 9s1 41 1 41s-6 10 -9 18s-7 32 -7 32s-7 0 -9 12c-2 13 -6 17 -6 27c0 9 5 10 5 10v0s-4 13 -5 42c-1 34 25 68 74 68
s75 -34 74 -68c-1 -29 -5 -42 -5 -42v0s5 -1 5 -10c0 -10 -3 -15 -6 -28c-2 -12 -9 -12 -9 -12s-4 -23 -7 -31s-9 -18 -9 -18s-2 -37 1 -41s13 -7 20 -9c12 -3 30 -4 43 -9zM160 48v0h137c-2 3 -4 6 -8 8c-7 5 -16 9 -27 13c-7 2 -17 4 -26 5c-6 1 -10 2 -15 3
c-3 1 -21 5 -29 15c-4 5 -6 12 -6 32c0 10 1 20 1 20v4l2 4c1 2 6 9 8 15c2 5 5 19 6 28c0 0 0 -1 1 4s8 4 9 8s3 7 5 18s-5 12 -5 17c0 4 1 5 1 5v0c0 1 4 14 4 38c0 13 -5 26 -14 35c-11 11 -25 16 -44 16c-18 0 -34 -5 -45 -16c-9 -9 -13 -22 -13 -35c1 -24 4 -37 4 -38
v0s1 -3 0 -6c-1 -5 -6 -5 -4 -16s4 -14 5 -18s8 -3 9 -8s1 -4 1 -4c1 -9 4 -23 6 -28c2 -6 6 -13 8 -15l2 -4v-4s1 -10 1 -20c0 -20 -2 -27 -6 -32c-8 -10 -26 -14 -29 -15c-5 -1 -10 -2 -16 -3c-9 -1 -18 -3 -25 -5c-11 -4 -20 -8 -27 -13c-4 -2 -6 -5 -8 -8h137z" />
    <glyph glyph-name="ion-minus-round" unicode="&#xf208;" horiz-adv-x="384" 
d="M353 224c17 0 31 -14 31 -32s-14 -32 -31 -32h-322c-17 0 -31 14 -31 32s14 32 31 32h322z" />
    <glyph glyph-name="ion-ios-flag" unicode="&#xf42d;" horiz-adv-x="256" 
d="M240 336c6 1 11 1 16 2v-16v-157c-5 -1 -10 -1 -16 -2c-11 -1 -24 -3 -39 -3c-25 0 -47 4 -69 9s-42 13 -64 13c-30 0 -46 -5 -52 -7v-143h-16v142v162v2l3 3c2 1 18 11 65 11c24 0 45 -4 67 -9c21 -4 42 -11 65 -11c15 0 29 3 40 4z" />
    <glyph glyph-name="ion-android-folder" unicode="&#xf2e0;" 
d="M181 352l43 -48h181c23 0 43 -20 43 -43v-186c0 -23 -20 -43 -43 -43h-362c-23 0 -43 20 -43 43v234c0 23 20 43 43 43h138z" />
    <glyph glyph-name="ion-ios-cog-outline" unicode="&#xf411;" horiz-adv-x="384" 
d="M384 175l-33 -8l-3 -14l27 -20l-12 -30l-34 5l-8 -11l17 -29l-23 -23l-29 17l-10 -7l5 -34l-29 -12l-21 27l-14 -3l-8 -33h-32l-9 33l-13 3l-21 -28l-29 12l4 34l-11 8l-30 -19l-23 23l18 31l-7 11l-35 -5l-12 29l28 22l-2 12l-35 9v32l35 9l2 12l-29 22l12 30l36 -5
l7 10l-19 32l22 22l32 -19l11 8l-4 35l29 13l22 -29l12 2l9 35h32l9 -35l12 -2l22 28l29 -12l-5 -35l11 -8l30 18l22 -23l-17 -30l7 -10l35 5l12 -30l-28 -21l3 -13l33 -9v-32zM356 127l-26 20l6 33l32 8v7l-32 8l-6 33l26 19l-3 7l-32 -5l-19 27l17 28l-5 6l-28 -17l-28 18
l5 34l-6 2l-20 -26l-32 6l-8 33h-7l-9 -33l-32 -6l-20 27l-7 -3l5 -34l-28 -18l-9 6l-21 12l-5 -5l18 -30l-18 -27l-33 5l-3 -7l27 -20l-6 -32l-33 -8v-7l33 -9l6 -32l-27 -20l3 -6l33 4l18 -27l-17 -29l5 -6l29 18l28 -18l-5 -33l7 -3l19 27l33 -7l8 -31h8l7 31l33 7
l20 -26l7 3l-5 32l26 18l28 -16l5 5l-16 27l19 28l32 -4zM192 320c71 0 128 -57 128 -128s-57 -128 -128 -128s-128 57 -128 128s57 128 128 128zM80 192c0 -7 1 -15 2 -22l104 28l28 104c-7 1 -15 2 -22 2c-30 0 -58 -12 -79 -33s-33 -49 -33 -79zM192 80c27 0 53 10 73 27
l-75 75l-104 -28c6 -15 15 -29 27 -41c21 -21 49 -33 79 -33zM276 118c18 20 28 47 28 74c0 30 -12 58 -33 79c-12 12 -26 22 -42 27l-28 -105z" />
    <glyph glyph-name="ion-android-arrow-down" unicode="&#xf35d;" horiz-adv-x="342" 
d="M192 363v-260l120 120l30 -31l-171 -171l-171 171l30 30l120 -119v260h42z" />
    <glyph glyph-name="ion-arrow-expand" unicode="&#xf25e;" horiz-adv-x="320" 
d="M178 238l64 64l-50 50h128v-128l-50 50l-64 -64zM178 146l28 28l64 -64l50 50v-128h-128l50 50zM142 146l-64 -64l50 -50h-128v128l50 -50l64 64zM142 238l-28 -28l-64 64l-50 -50v128h128l-50 -50z" />
    <glyph glyph-name="ion-ios-paw" unicode="&#xf47a;" horiz-adv-x="384" 
d="M380 252c6 -17 5 -38 -3 -57c-10 -25 -31 -43 -51 -43c-5 0 -10 1 -15 3c-22 10 -30 45 -17 79c10 28 31 46 51 46c5 0 10 -1 14 -3c10 -4 17 -13 21 -25zM90 234c13 -34 5 -69 -17 -79c-5 -2 -10 -3 -15 -3c-20 0 -41 18 -51 43c-8 19 -9 40 -3 57c4 12 11 21 21 25
c4 2 9 3 14 3c20 0 41 -18 51 -46zM134 237c-28 1 -52 32 -56 69c-2 23 4 45 16 60c8 10 19 17 31 18h6c27 -1 46 -29 50 -67c3 -24 -1 -48 -13 -63c-8 -9 -17 -15 -28 -16c-2 0 -4 -1 -6 -1zM192 208c64 0 128 -76 128 -149c0 -22 -11 -40 -22 -47c-13 -9 -23 -12 -42 -12
c-23 0 -29 8 -40 15c-8 5 -14 10 -24 10s-16 -5 -24 -10c-11 -7 -17 -15 -40 -15c-19 0 -29 3 -42 12c-11 7 -22 25 -22 47c0 73 64 149 128 149zM244 238c-11 1 -20 7 -28 16c-12 15 -16 39 -13 63c4 38 23 66 50 67h7c12 -1 22 -8 30 -18c12 -15 18 -37 16 -60
c-4 -37 -28 -67 -56 -68h-6z" />
    <glyph glyph-name="ion-social-chrome-outline" unicode="&#xf4da;" 
d="M224 416c123 0 224 -101 224 -224s-101 -224 -224 -224s-224 101 -224 224s101 224 224 224zM224 371c-57 0 -109 -27 -141 -68l54 -93c8 40 43 72 87 72h155c-30 54 -89 89 -155 89zM291 192c0 37 -30 67 -67 67s-67 -30 -67 -67s30 -67 67 -67s67 30 67 67zM45 192
c0 -91 67 -166 154 -177l54 93c-9 -3 -19 -6 -29 -6c-34 0 -61 18 -77 45v0l-78 135c-16 -27 -24 -58 -24 -90zM224 13c99 0 179 80 179 179c0 24 -4 46 -13 67h-108c19 -17 32 -40 32 -67c0 -17 -5 -32 -13 -45v0z" />
    <glyph glyph-name="ion-ios-game-controller-a" unicode="&#xf439;" 
d="M337 302c61 0 111 -45 111 -109s-50 -111 -111 -111h-226c-61 0 -111 47 -111 111s50 109 111 109h226zM168 181v0v22c0 3 -2 5 -5 5h-35v35c0 3 -2 5 -5 5h-22c-3 0 -5 -2 -5 -5v-35h-35c-3 0 -5 -2 -5 -5v-21c0 -3 2 -6 5 -6h35v-35c0 -3 2 -5 5 -5h21c3 0 6 2 6 5v35
h35c3 0 5 2 5 5zM288 173c11 0 19 8 19 19s-8 19 -19 19s-20 -8 -20 -19s9 -19 20 -19zM330 131c11 0 20 8 20 19s-9 19 -20 19s-19 -8 -19 -19s8 -19 19 -19zM330 214c11 0 20 9 20 20s-9 19 -20 19s-19 -8 -19 -19s8 -20 19 -20zM373 173c11 0 19 8 19 19s-8 19 -19 19
s-20 -8 -20 -19s9 -19 20 -19z" />
    <glyph glyph-name="ion-android-star" unicode="&#xf2fc;" horiz-adv-x="404" 
d="M202 75l-125 -75l33 142l-110 96l145 12l57 134l57 -134l145 -12l-110 -96l33 -142z" />
    <glyph glyph-name="ion-load-a" unicode="&#xf29a;" horiz-adv-x="384" 
d="M144 352c0 35 29 64 64 64s64 -29 64 -64s-29 -64 -64 -64s-64 29 -64 64zM0 192c0 27 21 48 48 48s48 -21 48 -48s-21 -48 -48 -48s-48 21 -48 48zM312 304c0 4 4 8 8 8s8 -4 8 -8s-4 -8 -8 -8s-8 4 -8 8zM132 340c20 -20 20 -52 0 -72s-52 -20 -72 0s-20 52 0 72
s52 20 72 0zM352 192c0 9 7 16 16 16s16 -7 16 -16s-7 -16 -16 -16s-16 7 -16 16zM297 79c0 13 11 24 24 24s24 -11 24 -24s-11 -24 -24 -24s-24 11 -24 24zM176 32c0 18 14 32 32 32s32 -14 32 -32s-14 -32 -32 -32s-32 14 -32 32zM56 80c0 22 18 40 40 40s40 -18 40 -40
s-18 -40 -40 -40s-40 18 -40 40z" />
    <glyph glyph-name="ion-trash-b" unicode="&#xf253;" horiz-adv-x="320" 
d="M318 315c3 -12 4 -11 -7 -11h-302c-11 0 -10 -1 -7 11c2 9 4 13 4 13c3 9 9 9 19 11l53 7c7 1 7 1 10 7c9 20 10 31 20 31h103c10 0 12 -11 21 -31c3 -6 3 -6 10 -7l53 -6c10 -2 16 -2 19 -11c0 0 2 -5 4 -14zM283 272c17 0 18 -2 17 -15l-19 -242c-2 -12 -2 -15 -17 -15
h-208c-15 0 -15 3 -17 15l-19 242c-1 12 0 15 17 15h246z" />
    <glyph glyph-name="ion-transfer-sender" unicode="&#xf13b;" horiz-adv-x="460" 
d="M283 187c6 0 11 6 11 12s-5 11 -11 11h-179c-6 0 -11 -5 -11 -11s5 -12 11 -12h179zM245 106c4 4 4 11 0 16l-44 43c-2 3 -4 3 -7 3c-4 0 -6 0 -8 -3l-43 -43c-5 -5 -5 -12 0 -16c4 -5 11 -5 16 0l23 23v-93c0 -6 6 -12 12 -12s11 6 11 12v93l23 -23c5 -5 12 -5 17 0z
M392 49c14 -1 27 0 43 0v-78c0 -10 -8 -15 -17 -17h-11h-380c-22 0 -27 5 -27 27v288c0 38 6 43 44 43h47c-9 -9 -16 -16 -28 -15c-9 1 -19 1 -28 0c-3 -1 -6 -4 -9 -7c3 -2 5 -6 9 -7c7 -1 16 0 23 0h348c25 0 29 -4 29 -28v-89h-37c-32 -1 -53 -19 -59 -49
c-6 -33 19 -66 53 -68zM91 290c-1 1 -1 2 -1 3c62 45 125 91 189 137c19 -24 37 -48 56 -73c-5 -2 -8 -4 -12 -6c-45 -18 -91 -34 -136 -52c-15 -6 -31 -10 -48 -9c-16 1 -32 0 -48 0zM396 86c12 0 23 11 22 22c0 12 -10 21 -23 21c-11 -1 -21 -10 -21 -22s10 -21 22 -21z
M395 152c23 -1 47 -3 62 22c1 -2 2 -3 3 -4v-78c0 -3 0 -5 -2 -6c-13 -10 -23 -27 -43 -23c-6 2 -14 0 -21 1c-22 1 -41 20 -42 42s16 41 37 45c2 0 4 1 6 1zM208 291v3c52 19 104 37 157 56c7 -20 15 -39 22 -59h-179zM409 297c-9 -1 -13 4 -14 15c15 0 28 1 42 0
c11 -1 23 -12 23 -24c0 -32 1 -63 0 -95c0 -5 -7 -9 -10 -13c-2 0 -2 1 -3 1c-1 4 -1 7 -1 11v86c0 15 -5 19 -21 19c-6 0 -10 1 -16 0zM457 70l3 -2c0 -25 1 -50 0 -74c-1 -6 -7 -10 -10 -15c-2 1 -3 2 -4 2c0 26 -1 52 0 78c1 4 7 7 11 11z" />
    <glyph glyph-name="ion-android-radio-button-on" unicode="&#xf3a7;" horiz-adv-x="416" 
d="M208 296c57 0 104 -47 104 -104s-47 -104 -104 -104s-104 47 -104 104s47 104 104 104zM208 400c114 0 208 -94 208 -208s-94 -208 -208 -208s-208 94 -208 208s94 208 208 208zM208 26c92 0 166 74 166 166s-74 166 -166 166s-166 -74 -166 -166s74 -166 166 -166z" />
    <glyph glyph-name="ion-social-snapchat" unicode="&#xf4ec;" horiz-adv-x="480" 
d="M480 88c0 -2 0 -11 -6 -21c-5 -8 -16 -19 -38 -24c-6 -1 -11 -3 -15 -4c-2 -1 -5 -1 -7 -1v-1c-1 -7 -1 -13 -4 -18c-2 -5 -9 -12 -22 -12c-2 0 -6 0 -9 1c-2 0 -3 1 -5 1c-7 1 -15 2 -23 2c-10 0 -19 -2 -26 -6c-4 -3 -9 -7 -14 -10c-18 -13 -38 -27 -71 -27
s-53 14 -71 27c-5 3 -9 7 -14 10c-7 4 -15 6 -25 6c-8 0 -17 -1 -24 -2c-2 0 -3 -1 -5 -1c-3 -1 -7 -1 -9 -1c-13 0 -20 7 -22 12c-3 5 -3 11 -4 18v1c-2 0 -4 0 -6 1c-4 1 -10 3 -16 4c-22 5 -33 16 -38 24c-6 10 -6 18 -6 20v15l15 1c16 1 44 7 54 17c29 27 36 43 36 52
c0 1 0 2 -4 5c-5 3 -13 6 -20 8c-5 2 -10 3 -14 5c-9 4 -18 16 -17 29c1 15 14 27 30 27c4 0 8 0 12 -2c8 -3 13 -4 17 -5c-1 9 -2 19 -3 30c-5 38 5 74 29 102c25 29 64 45 105 45v0c41 0 80 -16 105 -45c24 -28 34 -63 29 -101c-1 -11 -2 -22 -3 -31c4 1 10 2 18 5
c4 1 8 2 12 2c16 0 29 -12 30 -27c1 -13 -9 -25 -18 -29c-4 -2 -9 -3 -14 -5c-7 -2 -14 -5 -19 -8c-4 -3 -5 -4 -5 -5c0 -16 20 -37 36 -52c11 -10 39 -16 54 -17l15 -1v-14zM192 320c-9 0 -16 -11 -16 -24s7 -24 16 -24s16 11 16 24s-7 24 -16 24zM296 242c3 3 3 9 0 12
s-9 3 -12 0c-12 -12 -28 -19 -44 -19c-17 0 -32 7 -44 19c-3 3 -9 3 -12 0s-3 -9 0 -12c15 -15 35 -23 56 -23s41 8 56 23zM288 272c9 0 16 11 16 24s-7 24 -16 24s-16 -11 -16 -24s7 -24 16 -24z" />
    <glyph glyph-name="ion-pin" unicode="&#xf2a6;" horiz-adv-x="224" 
d="M188 220c20 -10 36 -31 36 -55c0 -17 -3 -21 -15 -21h-81l-12 -176h-8l-12 176h-81c-12 0 -15 5 -15 21c0 24 16 45 36 55v0c1 0 3 1 4 2c7 4 12 11 14 19l18 118v5c0 7 -4 10 -10 13v0c-1 0 -1 1 -2 1c-7 3 -12 9 -12 17c0 20 6 21 18 21h92c12 0 18 -1 18 -21
c0 -8 -5 -14 -12 -17c-1 0 -1 -1 -2 -1v0c-6 -3 -10 -6 -10 -13v-5l18 -118c2 -8 7 -15 14 -19c1 -1 3 -2 4 -2v0z" />
    <glyph glyph-name="ion-social-apple-outline" unicode="&#xf226;" horiz-adv-x="320" 
d="M238 278c-15 0 -26 -4 -37 -8c-10 -4 -21 -8 -35 -8s-25 4 -37 8c-11 4 -22 8 -34 8c-11 0 -23 -3 -34 -10c-12 -7 -23 -18 -31 -31c-12 -18 -16 -47 -13 -77c3 -34 16 -69 35 -99c13 -21 30 -45 50 -45h1c8 0 13 3 20 6c10 5 23 10 44 10v0c21 0 34 -5 44 -10
c7 -3 12 -6 19 -6v0c22 0 44 35 52 48c8 12 12 20 17 31c-12 7 -22 16 -30 28c-10 15 -17 33 -18 52c-1 18 2 37 10 53c6 12 14 22 24 30c-14 13 -31 20 -47 20zM238 294v0c25 0 52 -14 71 -39c-63 -36 -53 -128 11 -153c-9 -20 -13 -28 -24 -46c-16 -25 -37 -56 -65 -56h-1
c-24 0 -31 16 -63 16v0c-33 0 -40 -16 -64 -16h-1c-28 0 -48 28 -64 53c-44 69 -48 150 -21 193c19 30 50 48 78 48c29 0 47 -16 71 -16c23 0 38 16 72 16zM214 364c-11 -5 -21 -13 -28 -22c-4 -5 -9 -13 -13 -23c-1 -3 -2 -6 -2 -9c11 4 21 11 28 21c4 5 12 18 15 33z
M230 384v0c3 -23 -6 -46 -18 -62c-13 -17 -35 -30 -56 -30h-1c-4 22 6 44 18 60c14 17 37 31 57 32z" />
    <glyph glyph-name="ion-ios-americanfootball-outline" unicode="&#xf3cb;" horiz-adv-x="416" 
d="M331 315c112 -112 81 -327 81 -327s-26 -4 -65 -4c-73 0 -189 12 -262 85c-112 112 -81 327 -81 327s26 4 65 4c73 0 189 -12 262 -85zM17 383c-2 -19 -5 -60 0 -107c1 -8 2 -16 3 -23l127 127c-25 3 -51 5 -78 5v0v0c-22 0 -41 -1 -52 -2zM96 80c30 -30 72 -53 124 -66
c10 -3 20 -5 31 -7l142 142c-4 22 -10 44 -17 63c-14 37 -32 68 -56 92c-30 30 -72 53 -124 66c-10 3 -20 5 -31 7l-142 -142c4 -22 10 -44 17 -63c14 -37 32 -68 56 -92zM399 1c2 19 5 60 0 107c-1 8 -2 16 -3 23l-127 -127c25 -3 51 -5 78 -5c22 0 41 1 52 2zM259 130
l-28 -29l-12 12l29 28l-23 23l-28 -29l-12 12l29 28l-23 23l-28 -29l-12 12l29 28l-23 23l-28 -29l-12 12l29 28l-22 23l-29 -29l-11 12l67 67l12 -11l-29 -29l23 -22l28 29l12 -12l-29 -28l23 -23l28 29l12 -12l-29 -28l23 -23l28 29l12 -12l-29 -28l22 -23l29 29l12 -12
l-29 -28l22 -23l29 29l11 -12l-67 -67l-12 11l29 29z" />
    <glyph glyph-name="ion-ios-monitor-outline" unicode="&#xf465;" horiz-adv-x="480" 
d="M480 64h-176v-16h64v-16h-257v16h64v16h-175v288h480v-288zM16 336v-256h448v256h-448z" />
    <glyph glyph-name="ion-android-bar" unicode="&#xf368;" horiz-adv-x="384" 
d="M171 171l-171 170v43h384v-43l-171 -170v-131h107v-40h-256v40h107v131zM96 299h192l43 42h-278z" />
    <glyph glyph-name="ion-fireball" unicode="&#xf319;" horiz-adv-x="320" 
d="M297 210c14 -24 23 -52 23 -82c0 -33 -10 -63 -26 -88v0v0c-29 -43 -78 -72 -134 -72c-17 0 -32 1 -46 7s-25 13 -33 25c-11 16 -17 28 -21 52c-6 -25 2 -48 9 -60c-43 26 -69 71 -69 125v4c5 78 65 109 90 151c8 14 13 30 10 48c11 -9 15 -25 15 -39
c0 -16 -3 -29 -3 -29c4 8 7 18 9 31c6 35 2 85 -37 132l-1 1s7 0 18 -3c95 -16 169 -91 184 -186c2 -12 3 -23 3 -35c0 -16 -2 -32 -5 -47c10 23 13 43 14 55v10z" />
    <glyph glyph-name="ion-image" unicode="&#xf147;" 
d="M336 224c-26 0 -48 22 -48 48s22 48 48 48s48 -22 48 -48s-22 -48 -48 -48zM420 384c16 0 28 -12 28 -28v-328c0 -16 -12 -28 -28 -28h-392c-16 0 -28 12 -28 28v328c0 16 12 28 28 28h392zM317 186l99 -106v260c0 7 -6 12 -13 12h-358c-7 0 -12 -5 -13 -12v-260l126 152
c4 4 10 8 17 8s13 -2 17 -7l54 -59l4 -4c3 -2 7 -4 11 -4s8 2 12 5l18 16c4 3 8 5 13 5s10 -2 13 -6z" />
    <glyph glyph-name="ion-ios-loop-strong" unicode="&#xf459;" horiz-adv-x="512" 
d="M256 400c115 0 208 -93 208 -208c0 -14 -1 -28 -4 -42l-1 -4l-24 5l1 4c2 12 4 24 4 37c0 101 -83 184 -184 184c-66 0 -127 -36 -160 -94l-2 -3l-21 11l2 4c37 65 106 106 181 106zM416 102l2 3l21 -11l-2 -4c-37 -65 -106 -106 -181 -106c-115 0 -208 93 -208 208
c0 14 1 28 4 42l1 4l24 -5l-1 -4c-2 -12 -4 -24 -4 -37c0 -101 83 -184 184 -184c66 0 127 36 160 94zM384 192h128l-64 -64zM0 192l64 64l64 -64h-128z" />
    <glyph glyph-name="ion-lightbulb" unicode="&#xf299;" horiz-adv-x="256" 
d="M128 416c71 0 128 -56 128 -124c0 -5 0 -9 -1 -14s-2 -11 -3 -16v-2c-17 -63 -45 -71 -59 -167v-1c-2 -9 -10 -12 -20 -12h-90c-10 0 -18 3 -20 12v1c-14 96 -42 104 -59 167v2c-1 5 -2 11 -3 16s-1 9 -1 14c0 68 57 124 128 124zM190 52v-1c-2 -3 -3 -4 -3 -7s1 -5 3 -8
v-1c1 -2 2 -3 2 -5s-1 -4 -2 -6v-1c-2 -3 -3 -4 -3 -7s1 -5 3 -8v-1c1 -2 2 -4 2 -6c0 -5 -4 -9 -10 -11h-1c-6 -1 -13 -2 -19 -3h-2c-6 -1 -11 -5 -14 -9v0c-4 -5 -10 -10 -18 -10s-15 6 -19 11v0c-3 4 -7 7 -13 8h-2c-6 1 -13 2 -19 3h-1c-6 2 -10 6 -10 11c0 2 1 4 2 6v1
c2 2 3 4 3 7s-1 5 -3 8v1c-1 2 -2 4 -2 6s1 3 2 5v1c2 3 3 5 3 8s-1 4 -3 7v1v0c-1 2 -2 4 -2 6c0 4 -1 6 7 6h114c8 0 7 -2 7 -6c0 -2 -1 -4 -2 -6v0z" />
    <glyph glyph-name="ion-social-css3-outline" unicode="&#xf4de;" horiz-adv-x="384" 
d="M291 81l-99 -28l-98 28l-7 78h48l4 -40l53 -15v0v0l54 15l5 64h-112l-4 50h121l4 51h-184l-4 49h241zM0 416h384l-35 -403l-157 -45l-157 45zM319 37l30 347h-314l30 -347l127 -36z" />
    <glyph glyph-name="ion-toggle" unicode="&#xf355;" 
d="M320 288h-192c-53 0 -96 -43 -96 -96s43 -96 96 -96h192c53 0 96 43 96 96s-43 96 -96 96zM320 320v0c71 0 128 -57 128 -128s-57 -128 -128 -128h-192c-71 0 -128 57 -128 128s57 128 128 128h192zM128 240c-26 0 -48 -22 -48 -48s22 -48 48 -48s48 22 48 48
s-22 48 -48 48zM128 272v0c44 0 80 -36 80 -80s-36 -80 -80 -80s-80 36 -80 80s36 80 80 80z" />
    <glyph glyph-name="ion-car" unicode="&#xf50c;" horiz-adv-x="452" 
d="M373 133c-14 0 -25 11 -25 25s11 25 25 25c13 0 25 -11 25 -25s-12 -25 -25 -25zM79 133c-13 0 -25 11 -25 25s12 25 25 25c14 0 25 -11 25 -25s-11 -25 -25 -25zM80 246l26 68c1 5 7 9 12 9h216c5 0 11 -4 12 -9l26 -68c2 -5 -1 -9 -6 -9h-280c-5 0 -8 4 -6 9zM452 253
c0 14 -11 25 -25 25h-30l-21 56c-6 14 -22 28 -36 32c0 0 -37 11 -114 11s-114 -11 -114 -11c-14 -4 -30 -18 -36 -32l-21 -56h-30c-14 0 -25 -11 -25 -25s11 -25 25 -25h11l-8 -20c-5 -14 -10 -37 -10 -52v-117c0 -18 15 -32 32 -32s32 14 32 32v18h288v-18
c0 -18 15 -32 32 -32s32 14 32 32v117c0 15 -5 38 -10 52l-8 20h11c14 0 25 11 25 25z" />
    <glyph glyph-name="ion-ios-albums-outline" unicode="&#xf3c9;" 
d="M432 304h-416v-288h416v288zM448 320v0v-320h-448v320h448zM40 336v16h368v-16h-368zM72 368v16h304v-16h-304z" />
    <glyph glyph-name="ion-archive" unicode="&#xf102;" 
d="M224 140l-128 116h80v96h96v-96h80zM433 151c11 -6 17 -19 15 -32l-9 -67c-2 -13 -9 -20 -28 -20h-374c-18 0 -26 7 -28 20l-9 67c-2 13 3 26 14 32l72 55h42l-62 -62h50c2 0 5 -1 6 -3l18 -45h168l18 45c1 2 3 3 5 3h51l-62 62h42z" />
    </font>
</defs>
</svg>
